<svg width="627" height="430" viewBox="0 0 627 430" fill="none" xmlns="http://www.w3.org/2000/svg">
<path fill-rule="evenodd" clip-rule="evenodd" d="M114.258 165.447C115.213 161.197 107.742 222.776 109.174 209.434C118.641 157.128 114.667 100.441 135.738 50.6826C140.989 39.702 147.671 32.7357 156.263 33.208C278.461 36.9864 404.477 -89.5856 496.125 191.895C778.707 324.135 515.774 430.399 292.065 420.953C71.0103 411.699 -117.726 252.348 114.258 165.447V165.447Z" fill="black" stroke="white" stroke-width="15" stroke-linejoin="round"/>
<path fill-rule="evenodd" clip-rule="evenodd" d="M108.531 203.231C249.821 292.02 482.76 237.235 492.307 193.785C505.672 208.898 492.307 250.459 492.307 250.459C431.208 329.803 135.261 312.801 102.803 256.127C98.9839 241.013 106.621 208.898 108.531 203.231V203.231Z" fill="white" stroke="black" stroke-width="6.55336"/>
<path fill-rule="evenodd" clip-rule="evenodd" d="M136.359 219.586C159.271 230.921 224.999 248.001 251.73 249.89C270.823 263.114 261.276 286.353 253.639 301.466C202.087 301.466 142.898 288.242 127.623 271.24C118.076 254.237 126.812 236.588 136.359 219.586V219.586Z" fill="white" fill-opacity="0.316667" stroke="black" stroke-width="2.46189"/>
</svg>
