<svg aria-hidden="true" focusable="false" data-prefix="fad" data-icon="ball-pile" role="img" xmlns="http://www.w3.org/2000/svg" viewBox="0 0 576 512"><g class="fa-group"><path fill="currentColor" d="M176 168a80 80 0 1 0 80 80 80 80 0 0 0-80-80zm224 0a80 80 0 1 0 80 80 80 80 0 0 0-80-80z" class="fa-secondary"></path><path fill="currentColor" d="M80 352a80 80 0 1 0 80 80 80 80 0 0 0-80-80zM288 0a80 80 0 1 0 80 80 80 80 0 0 0-80-80zm0 352a80 80 0 1 0 80 80 80 80 0 0 0-80-80zm208 0a80 80 0 1 0 80 80 80 80 0 0 0-80-80z" class="fa-primary"></path></g></svg>