<?xml version="1.0" encoding="UTF-8" standalone="no"?>
<svg
   xmlns:dc="http://purl.org/dc/elements/1.1/"
   xmlns:cc="http://creativecommons.org/ns#"
   xmlns:rdf="http://www.w3.org/1999/02/22-rdf-syntax-ns#"
   xmlns:svg="http://www.w3.org/2000/svg"
   xmlns="http://www.w3.org/2000/svg"
   xmlns:sodipodi="http://sodipodi.sourceforge.net/DTD/sodipodi-0.dtd"
   xmlns:inkscape="http://www.inkscape.org/namespaces/inkscape"
   version="1.1"
   id="Capa_2"
   x="0px"
   y="0px"
   width="249"
   height="47"
   viewBox="0 0 249 47"
   xml:space="preserve"
   sodipodi:docname="logo-tradeogre.svg"
   inkscape:version="1.0.2 (e86c870879, 2021-01-15)"><metadata
   id="metadata1049"><rdf:RDF><cc:Work
       rdf:about=""><dc:format>image/svg+xml</dc:format><dc:type
         rdf:resource="http://purl.org/dc/dcmitype/StillImage" /><dc:title></dc:title></cc:Work></rdf:RDF></metadata><defs
   id="defs1047" /><sodipodi:namedview
   pagecolor="#ffffff"
   bordercolor="#666666"
   borderopacity="1"
   objecttolerance="10"
   gridtolerance="10"
   guidetolerance="10"
   inkscape:pageopacity="0"
   inkscape:pageshadow="2"
   inkscape:window-width="1920"
   inkscape:window-height="1019"
   id="namedview1045"
   showgrid="false"
   inkscape:zoom="3.2046027"
   inkscape:cx="146.94097"
   inkscape:cy="18.5"
   inkscape:window-x="0"
   inkscape:window-y="0"
   inkscape:window-maximized="0"
   inkscape:current-layer="Capa_2" />
<style
   type="text/css"
   id="style960">
	.st0{fill:none;}
	.st1{fill:#080808;}
	.st2{fill:#BFBFB8;}
	.st3{fill:#E9EAA6;}
</style>
<g
   id="g1042"
   transform="translate(-25.5,-26.5)">
	<path
   class="st0"
   d="m 242.4,44.2 c 0,-0.7 -0.1,-1.3 -0.2,-1.8 -0.7,-0.2 -1.7,-0.4 -2.7,-0.4 h -9.6 v 7 h 7.1 c 3.7,0 5.4,-1.7 5.4,-4.8 z"
   id="path962" />
	<path
   class="st0"
   d="m 178,57.5 c 1.3,0 2.7,-0.2 3.9,-0.7 1.2,-0.5 2.3,-1.2 3.2,-2 0.9,-0.8 1.7,-1.8 2.2,-2.9 0.5,-1.2 0.8,-2.3 0.8,-3.6 0,-1.2 -0.2,-2.5 -0.8,-3.6 -0.2,-0.4 -0.4,-0.8 -0.7,-1.2 -0.7,-0.5 -1.4,-0.9 -2.2,-1.2 -1.2,-0.5 -2.6,-0.7 -3.9,-0.7 -1.4,0 -2.7,0.2 -3.9,0.7 -1.2,0.5 -2.3,1.2 -3.2,2 -0.9,0.8 -1.7,1.8 -2.2,3 -0.5,1.2 -0.8,2.3 -0.8,3.6 0,1.2 0.2,2.5 0.8,3.6 0.2,0.4 0.5,0.8 0.7,1.2 0.7,0.5 1.4,0.8 2.2,1.2 1.2,0.3 2.5,0.6 3.9,0.6 z"
   id="path964" />
	<path
   class="st0"
   d="m 81.4,44.2 c 0,-0.7 -0.1,-1.3 -0.2,-1.8 C 80.5,42.2 79.5,42 78.5,42 h -9.7 v 7 h 7.1 c 3.7,0 5.5,-1.7 5.5,-4.8 z"
   id="path966" />
	<path
   class="st0"
   d="m 135.3,54.6 c 1.3,-1.5 2.1,-3.7 2.1,-6.7 0,-2.1 -0.3,-3.7 -1.1,-5.1 -1.2,-0.7 -2.7,-1 -4.6,-1 h -7 V 57 h 4.5 c 2.7,0 4.7,-0.8 6.1,-2.4 z"
   id="path968" />
	<polygon
   class="st0"
   points="103,45.1 98.9,53 107.1,53 "
   id="polygon970" />
	<rect
   x="42.5"
   y="34"
   class="st1"
   width="2.5"
   height="1.4"
   id="rect972" />
	<rect
   x="33"
   y="39.400002"
   class="st1"
   width="5"
   height="2.5"
   id="rect974" />
	<polygon
   class="st1"
   points="61.9,41.9 61.9,37.9 59.7,37.9 59.7,39.4 42.5,39.4 42.5,61 40.5,61 40.5,63.4 45,63.4 45,41.9 "
   id="polygon976" />
	<polygon
   class="st1"
   points="68.8,63.4 68.8,55.5 73.8,55.5 72.3,53 66.3,53 66.3,61 64.4,61 64.4,63.4 "
   id="polygon978" />
	<path
   class="st1"
   d="m 88.1,46.6 c 0,-3.4 -1.2,-5.8 -3.6,-7.2 0.7,1.2 1.1,2.8 1.1,4.7 0,5.4 -2.9,8.3 -8.6,8.8 L 85.3,66 h -4 l 1.6,2.5 h 4.9 L 79.5,55.4 C 85.2,55 88.1,52 88.1,46.6 Z"
   id="path980" />
	<path
   class="st1"
   d="m 78.4,41.9 c 1.1,0 1.9,0.2 2.7,0.4 -0.7,-1.9 -2.3,-2.9 -5.1,-2.9 h -9.6 v 9.5 h 2.5 v -7.1 h 9.5 z"
   id="path982" />
	<polygon
   class="st1"
   points="93.3,63.4 95.5,59.5 110.6,59.5 109.2,57 93,57 90.8,61 89.7,61 88.4,63.4 "
   id="polygon984" />
	<polygon
   class="st1"
   points="115.4,66 116.7,68.5 121.8,68.5 103.5,35.9 102.9,36.9 119.3,66 "
   id="polygon986" />
	<polygon
   class="st1"
   points="101.1,41.5 95.1,53 98.9,53 103,45.1 "
   id="polygon988" />
	<path
   class="st1"
   d="m 131.7,41.9 c 1.9,0 3.4,0.3 4.6,1 -0.2,-0.5 -0.6,-1 -1,-1.3 -1.3,-1.4 -3.4,-2.1 -6.1,-2.1 h -7 v 17.6 h 2.5 V 41.9 Z"
   id="path990" />
	<path
   class="st1"
   d="m 139.8,40.2 c 1.3,2 2,4.6 2,7.8 0,4.3 -1.2,7.5 -3.4,9.7 -2.3,2.2 -5.7,3.3 -10.3,3.3 h -7.7 v 2.5 h 10.2 c 4.6,0 8,-1.1 10.3,-3.3 2.3,-2.2 3.4,-5.4 3.4,-9.7 0,-4.2 -1.2,-7.4 -3.4,-9.5 -0.4,-0.3 -0.7,-0.5 -1.1,-0.8 z"
   id="path992" />
	<polygon
   class="st1"
   points="147.2,63.4 164.4,63.4 164.4,59.5 161.9,59.5 161.9,61 147.2,61 "
   id="polygon994" />
	<polygon
   class="st1"
   points="162.3,41.9 162.3,37.9 159.8,37.9 159.8,39.4 149.1,39.4 149.1,43.8 151.6,43.8 151.6,41.9 "
   id="polygon996" />
	<polygon
   class="st1"
   points="162.3,50.2 162.3,46.3 159.8,46.3 159.8,47.8 149.1,47.8 149.1,57 151.6,57 151.6,50.2 "
   id="polygon998" />
	<path
   class="st1"
   d="m 193.9,45.6 v 0 c -0.8,-1.7 -1.8,-3.1 -3.2,-4.2 -0.2,-0.2 -0.6,-0.5 -0.8,-0.7 0.6,0.7 1.1,1.6 1.5,2.4 0.7,1.6 1.2,3.3 1.2,5.1 0,1.8 -0.4,3.5 -1.2,5.1 -0.7,1.6 -1.8,3 -3.2,4.2 -1.4,1.2 -2.9,2.2 -4.6,2.9 -1.7,0.7 -3.7,1.1 -5.6,1.1 -1.9,0 -3.8,-0.3 -5.6,-1.1 -1.4,-0.6 -2.7,-1.2 -3.7,-2.2 0.5,0.7 1,1.2 1.7,1.7 1.3,1.2 2.8,2.2 4.6,2.8 1.7,0.7 3.7,1.1 5.6,1.1 2,0 3.8,-0.3 5.6,-1.1 1.7,-0.7 3.3,-1.7 4.6,-2.9 1.3,-1.2 2.4,-2.6 3.2,-4.2 0.4,-0.8 0.7,-1.7 0.9,-2.5 -0.7,-1.6 -1.2,-3.3 -1.2,-5.1 -0.1,-0.7 0,-1.6 0.2,-2.4 z"
   id="path1000" />
	<path
   class="st1"
   d="m 170.3,50.7 c 0,-1.2 0.2,-2.5 0.8,-3.6 0.5,-1.2 1.2,-2.1 2.2,-3 0.9,-0.8 2,-1.5 3.2,-2 1.2,-0.5 2.5,-0.7 3.9,-0.7 1.4,0 2.7,0.2 3.9,0.7 0.8,0.3 1.6,0.7 2.2,1.2 -0.4,-0.6 -0.9,-1.2 -1.5,-1.7 -0.9,-0.8 -2,-1.5 -3.2,-2 -1.2,-0.5 -2.6,-0.7 -3.9,-0.7 -1.4,0 -2.7,0.2 -3.9,0.7 -1.2,0.5 -2.3,1.2 -3.2,2 -0.9,0.8 -1.7,1.8 -2.2,3 -0.5,1.2 -0.8,2.3 -0.8,3.6 0,1.2 0.2,2.5 0.8,3.6 0.5,1.1 1.2,2.1 2.2,2.9 0.3,0.3 0.7,0.6 1,0.8 -0.2,-0.4 -0.5,-0.8 -0.7,-1.2 -0.4,-1.1 -0.8,-2.3 -0.8,-3.6 z"
   id="path1002" />
	<polygon
   class="st1"
   points="218.7,68.5 223.1,68.5 223.1,61 223,61 223,51.5 220.6,51.5 220.6,66 218.7,66 "
   id="polygon1004" />
	<path
   class="st1"
   d="m 210.3,39.1 c -0.7,-0.2 -1.3,-0.2 -2,-0.2 -1.5,0 -2.8,0.2 -4.1,0.7 -1.2,0.5 -2.3,1.2 -3.2,2 -0.9,0.8 -1.7,1.8 -2.2,3 -0.5,1.2 -0.8,2.3 -0.8,3.6 0,1.2 0.2,2.5 0.8,3.6 0.5,1.2 1.2,2.1 2.2,2.9 0.3,0.3 0.7,0.6 1.1,0.8 -0.2,-0.4 -0.5,-0.8 -0.7,-1.2 -0.5,-1.2 -0.8,-2.3 -0.8,-3.6 0,-1.2 0.2,-2.4 0.8,-3.6 0.5,-1.2 1.2,-2.1 2.2,-3 0.9,-0.8 2,-1.5 3.2,-2 1.2,-0.5 2.6,-0.7 4.1,-0.7 0.6,0 1.2,0.1 2,0.2 0.7,0.2 1.6,0.4 2.6,0.8 l 2.3,-3.3 c -1,-0.6 -2.2,-1 -3.3,-1.3 l -1.5,2.1 c -1.1,-0.4 -2,-0.6 -2.7,-0.8 z"
   id="path1006" />
	<path
   class="st1"
   d="m 212.4,60.9 c -1.3,0.4 -2.7,0.6 -4.2,0.6 -2,0 -3.8,-0.3 -5.6,-1.1 -1.4,-0.6 -2.7,-1.3 -3.8,-2.2 0.5,0.7 1.1,1.2 1.7,1.8 1.3,1.2 2.9,2.2 4.6,2.8 1.7,0.7 3.7,1.1 5.6,1.1 1.5,0 2.9,-0.2 4.2,-0.6 0.4,-0.2 0.8,-0.2 1.3,-0.4 v -3.7 c -1.2,0.7 -2.5,1.3 -3.8,1.7 z"
   id="path1008" />
	<path
   class="st1"
   d="M 216.2,53.9 V 53 h -3.7 v 2.5 h 2 c 0.6,-0.5 1.2,-1 1.7,-1.6 z"
   id="path1010" />
	<path
   class="st1"
   d="m 239.5,41.9 c 1.1,0 1.9,0.2 2.7,0.4 -0.7,-1.9 -2.3,-2.9 -5.1,-2.9 h -9.6 v 9.5 h 2.5 v -7.1 h 9.5 z"
   id="path1012" />
	<polygon
   class="st1"
   points="229.9,63.4 229.9,55.5 235,55.5 233.4,53 227.4,53 227.4,61 225.5,61 225.5,63.4 "
   id="polygon1014" />
	<path
   class="st1"
   d="m 249.2,46.6 c 0,-3.4 -1.2,-5.8 -3.6,-7.2 0.7,1.2 1.1,2.8 1.1,4.7 0,5.4 -2.9,8.3 -8.6,8.8 l 8.3,13.1 h -4 l 1.6,2.5 h 4.9 l -8.3,-13.1 c 5.7,-0.4 8.6,-3.4 8.6,-8.8 z"
   id="path1016" />
	<polygon
   class="st1"
   points="267.4,50.2 267.4,46.3 264.9,46.3 264.9,47.8 254.2,47.8 254.2,57 256.7,57 256.7,50.2 "
   id="polygon1018" />
	<polygon
   class="st1"
   points="267.4,41.9 267.4,37.9 264.9,37.9 264.9,39.4 254.2,39.4 254.2,43.8 256.7,43.8 256.7,41.9 "
   id="polygon1020" />
	<polygon
   class="st1"
   points="252.2,61 252.2,63.4 269.5,63.4 269.5,59.5 267,59.5 267,61 "
   id="polygon1022" />
	<polygon
   class="st2"
   points="38,41.9 38,61 40.5,61 42.5,61 42.5,39.4 59.7,39.4 59.7,37.9 59.7,35.4 45,35.4 42.5,35.4 42.5,34 42.5,31.5 38,31.5 38,35.4 30.5,35.4 30.5,39.4 33,39.4 38,39.4 "
   id="polygon1024" />
	<path
   class="st2"
   d="m 77,52.9 c 5.7,-0.4 8.6,-3.4 8.6,-8.8 0,-1.9 -0.3,-3.5 -1.1,-4.7 -1.5,-2.7 -4.6,-4 -9.1,-4 H 61.9 v 2.5 4 19.1 h 2.5 1.9 v -8 h 6 l 1.6,2.5 6.6,10.5 h 0.9 4 z M 68.8,49 h -2.5 v -9.6 h 9.6 c 2.8,0 4.6,1 5.1,2.9 0.2,0.6 0.2,1.2 0.2,1.8 0,3.2 -1.8,4.8 -5.5,4.8 z"
   id="path1026" />
	<path
   class="st2"
   d="M 102.9,36.9 101,33.4 85.9,61 h 3.8 1.2 l 2.2,-4 h 16.2 l 1.4,2.5 3.7,6.6 h 1.1 3.9 z m -4,16.1 h -3.8 l 6.1,-11.4 1.9,3.7 4.1,7.9 z"
   id="path1028" />
	<path
   class="st2"
   d="m 138.4,57.7 c 2.3,-2.2 3.4,-5.4 3.4,-9.7 0,-3.2 -0.7,-5.8 -2,-7.8 -0.4,-0.6 -0.9,-1.2 -1.4,-1.7 -2.2,-2.1 -5.7,-3.1 -10.5,-3.1 H 117.8 V 61 h 2.5 7.7 c 4.7,0 8.1,-1.1 10.4,-3.3 z M 122.2,57 V 39.4 h 7 c 2.7,0 4.8,0.7 6.1,2.1 0.4,0.4 0.7,0.8 1,1.3 0.7,1.3 1.1,3 1.1,5.1 0,3 -0.7,5.2 -2.1,6.7 -1.3,1.5 -3.4,2.3 -6.1,2.3 h -4.5 z"
   id="path1030" />
	<polygon
   class="st2"
   points="144.7,35.4 144.7,61 147.2,61 161.9,61 161.9,59.5 161.9,57 151.6,57 149.1,57 149.1,47.8 159.8,47.8 159.8,46.3 159.8,43.8 151.6,43.8 149.1,43.8 149.1,39.4 159.8,39.4 159.8,37.9 159.8,35.4 "
   id="polygon1032" />
	<path
   class="st3"
   d="m 178,61.4 c 2,0 3.8,-0.3 5.6,-1.1 1.7,-0.7 3.3,-1.7 4.6,-2.9 1.3,-1.2 2.4,-2.6 3.2,-4.2 0.7,-1.6 1.2,-3.3 1.2,-5.1 0,-1.8 -0.4,-3.5 -1.2,-5.1 -0.4,-0.8 -0.9,-1.7 -1.5,-2.4 -0.5,-0.7 -1,-1.2 -1.7,-1.7 -1.3,-1.2 -2.8,-2.2 -4.6,-2.8 -1.7,-0.7 -3.7,-1.1 -5.6,-1.1 -2,0 -3.8,0.3 -5.6,1.1 -1.7,0.7 -3.3,1.7 -4.6,2.8 -1.3,1.2 -2.3,2.6 -3.2,4.2 -0.7,1.6 -1.2,3.3 -1.2,5.1 0,1.8 0.4,3.5 1.2,5.1 0.7,1.6 1.8,3 3.2,4.2 0.2,0.2 0.6,0.5 0.8,0.7 1.1,0.8 2.4,1.6 3.7,2.2 1.9,0.7 3.7,1 5.7,1 z m -7.2,-6.7 c -0.9,-0.8 -1.7,-1.8 -2.2,-2.9 -0.5,-1.1 -0.8,-2.3 -0.8,-3.6 0,-1.2 0.2,-2.5 0.8,-3.6 0.5,-1.2 1.2,-2.1 2.2,-3 0.9,-0.8 2,-1.5 3.2,-2 1.2,-0.5 2.5,-0.7 3.9,-0.7 1.4,0 2.7,0.2 3.9,0.7 1.2,0.5 2.3,1.2 3.2,2 0.6,0.5 1.1,1.1 1.5,1.7 0.2,0.4 0.5,0.8 0.7,1.2 0.5,1.2 0.8,2.3 0.8,3.6 0,1.2 -0.2,2.5 -0.8,3.6 -0.5,1.2 -1.2,2.1 -2.2,2.9 -0.9,0.8 -2,1.5 -3.2,2 -1.2,0.5 -2.6,0.7 -3.9,0.7 -1.4,0 -2.7,-0.2 -3.9,-0.7 -0.8,-0.3 -1.5,-0.7 -2.2,-1.2 -0.2,-0.1 -0.6,-0.3 -1,-0.7 z"
   id="path1034" />
	<path
   class="st3"
   d="M 220.6,51.5 V 49 H 210 v 4 h 2.5 3.7 v 0.9 c -0.5,0.6 -1.1,1.1 -1.7,1.6 -0.6,0.4 -1.2,0.7 -1.7,1.1 -1.4,0.7 -2.9,1 -4.6,1 -1.4,0 -2.7,-0.2 -3.9,-0.7 -0.8,-0.3 -1.5,-0.7 -2.2,-1.2 -0.3,-0.2 -0.7,-0.5 -1.1,-0.8 -0.9,-0.8 -1.7,-1.8 -2.2,-2.9 -0.5,-1.2 -0.8,-2.3 -0.8,-3.6 0,-1.2 0.2,-2.4 0.8,-3.6 0.5,-1.2 1.2,-2.1 2.2,-3 0.9,-0.8 2,-1.5 3.2,-2 1.2,-0.5 2.6,-0.7 4.1,-0.7 0.6,0 1.2,0.1 2,0.2 0.7,0.2 1.6,0.4 2.6,0.8 l 1.5,-2.1 0.8,-1.2 c -1,-0.6 -2.2,-1 -3.4,-1.3 -1.2,-0.2 -2.4,-0.4 -3.7,-0.4 -2,0 -3.8,0.3 -5.6,1.1 -1.7,0.7 -3.3,1.7 -4.6,2.8 -1.3,1.2 -2.4,2.6 -3.2,4.2 -0.4,0.8 -0.7,1.7 -0.9,2.5 -0.2,0.8 -0.2,1.7 -0.2,2.6 0,1.7 0.4,3.5 1.2,5.1 0,0 0,0 0,0.1 0.7,1.6 1.8,3 3.2,4.2 0.2,0.2 0.5,0.4 0.8,0.7 1.2,0.9 2.4,1.7 3.8,2.2 1.7,0.7 3.7,1.1 5.6,1.1 1.5,0 2.9,-0.2 4.2,-0.6 1.3,-0.4 2.6,-0.9 3.8,-1.7 v 3.7 2.9 h 2.5 2 z"
   id="path1036" />
	<path
   class="st3"
   d="m 238.1,52.9 c 5.7,-0.4 8.6,-3.4 8.6,-8.8 0,-1.9 -0.3,-3.5 -1.1,-4.7 -1.5,-2.7 -4.6,-4 -9.1,-4 H 223 v 16 9.6 h 0.2 2.3 1.9 v -8 h 6 l 1.6,2.5 6.6,10.5 h 0.9 4 z M 229.9,49 h -2.5 v -9.6 h 9.6 c 2.8,0 4.6,1 5.1,2.9 0.2,0.6 0.2,1.2 0.2,1.8 0,3.2 -1.8,4.8 -5.5,4.8 z"
   id="path1038" />
	<polygon
   class="st3"
   points="249.7,35.4 249.7,61 252.2,61 267,61 267,59.5 267,57 256.7,57 254.2,57 254.2,47.8 264.9,47.8 264.9,46.3 264.9,43.8 256.7,43.8 254.2,43.8 254.2,39.4 264.9,39.4 264.9,37.9 264.9,35.4 "
   id="polygon1040" />
</g>
</svg>
