<svg xmlns="http://www.w3.org/2000/svg" width="1897.553" height="648.082" viewBox="0 0 1897.553 648.082"><g transform="translate(-136.236 -795.687)"><path d="M448.467,795.687c23.992,4.582,42.988,19.351,63.359,31.062,47.639,27.388,94.975,55.307,142.377,83.106,11.34,6.651,23.136,12.791,33.54,20.717,21.224,16.168,34.558,37.867,36.118,64.721,1.434,24.7.36,49.557.357,74.344,0,14.329-.1,28.659-.11,42.988-.036,40.658.2,81.318-.165,121.973-.241,26.612-9.694,49.763-28.588,68.764-10.611,10.672-24.049,17.208-36.874,24.58Q613.22,1353.957,567.8,1379.7c-32.123,18.293-64.1,36.85-96.513,54.616-8.456,4.634-18.291,6.751-25.888,9.453l-33.032,0c-7.917-2.887-17.6-5.005-25.837-9.665-35.366-20-70.316-40.729-105.4-61.216-32.208-18.8-64.529-37.422-96.56-56.523-30.726-18.323-48.277-45.169-48.32-81.458-.093-77.464.385-154.929.908-232.391.207-30.586,12.966-55.491,37.053-74.067,9.162-7.066,19.923-12.031,29.742-18.288a18.214,18.214,0,0,1,13.328-2.583c36.986,5.8,62.055,35.215,61.994,72.562q-.144,88.227-.131,176.456c0,3.162.025,6.338.3,9.484,2.746,31.815,19.515,55.83,43.124,75.586a152.719,152.719,0,0,0,78.855,34.969c31.721,4.306,62.127.311,91-13.649,29.147-14.094,52.151-35.129,68.158-63.269,16.76-29.466,23.714-61.306,20.188-95.146a156.235,156.235,0,0,0-25.4-70.79c-10.9-16.529-24.545-30.048-43.125-37.262-12.985-5.042-26.6-8.513-40.026-12.354-23.051-6.594-46.192-12.873-69.263-19.4-11.472-3.244-21.615,6.465-21.072,16.124.8,14.285.338,28.65.151,42.978-.173,13.18,5.808,21.483,18.232,24.873,20.4,5.567,40.878,10.912,61.123,17.012a44.349,44.349,0,0,1,16.429,8.936c22.866,20.518,27.174,55.683,13.033,82.657a71.108,71.108,0,0,1-97.458,29.452c-20.5-11.2-31.815-27.451-31.6-52.311.711-80.975.222-161.96.289-242.941.027-31.9,10.487-60.394,29.012-86.084a11.366,11.366,0,0,1,5.113-3.648c6.025-2.214,12.183-4.065,18.5-6.126Z" fill="#61d9fa"/><path d="M1064.736,1116.965c7.721,5.106,15.563,9.221,22.082,14.865,9,7.789,12.673,18.8,13.09,30.4.551,15.306.9,30.695-.036,45.964-1.938,31.556-22.126,54.536-53.651,59.009a119.283,119.283,0,0,1-16.411,1.023q-54.975.129-109.951.04c-9.232,0-10.815-1.561-10.816-10.714q-.014-135.44,0-270.88c0-9.456,2.037-11.48,11.416-11.481,36.817,0,73.638-.326,110.449.146,19.275.247,36.629,6.22,50,21.2,7.809,8.745,13.032,19.088,14.168,30.343a287.455,287.455,0,0,1,1.216,48.776c-1.367,19.441-12.088,33.432-30.529,40.91a5.169,5.169,0,0,0-1.2.846C1064.449,1117.5,1064.428,1117.707,1064.736,1116.965ZM954.079,1183.4c0,13.329.084,26.658-.046,39.986-.046,4.678,2.056,6.759,6.576,6.757,21.658-.01,43.33.435,64.973-.15,20.285-.549,30.368-11.6,30.444-31.777.025-6.5.01-12.995.011-19.493,0-3,0-6-.005-9-.061-20.985-10.9-32.168-31.98-32.406-20.99-.237-41.985-.086-62.977-.037-5.855.014-6.956,1.161-6.982,7.13C954.036,1157.408,954.076,1170.4,954.079,1183.4Zm0-126.89c0,11.99.05,23.98-.027,35.97-.026,4.135,1.261,6.77,5.916,6.761,21.815-.043,43.635.256,65.442-.158,13.77-.262,24.228-9.55,25.6-23.317a187.731,187.731,0,0,0,.495-35.353c-1.612-17.774-11.837-26.136-29.64-26.178q-30.225-.074-60.449,0c-6.207.013-7.295,1.115-7.324,7.306C954.036,1033.2,954.075,1044.853,954.078,1056.509Z" fill="#61d9fa"/><path d="M1533.939,1246.5c-6.067,5.366-11.43,11.013-17.675,15.4-7.574,5.326-16.663,6.51-25.8,6.343-12.974-.238-26.1.515-38.881-1.249-25.106-3.466-42.568-17.415-49.814-42.205a94.186,94.186,0,0,1-3.676-24.994c-.4-33.151-.247-66.311-.13-99.467.124-35.166,24.052-61.362,59.174-63.991,15.908-1.191,31.934-.937,47.909-1.061,20.493-.159,40.987-.06,61.481-.007a30.128,30.128,0,0,1,6.916.716,6.615,6.615,0,0,1,5.528,6.775q.05,2.248.054,4.5,0,104.718,0,209.435c0,10.546-1.056,11.571-11.853,11.577-8.331.005-16.662.048-24.992-.021-6.011-.05-8.046-2.049-8.215-8.13C1533.834,1255.365,1533.939,1250.6,1533.939,1246.5Zm-.023-108.21q0-27.729-.013-55.458c-.013-6.535-1.027-7.549-7.563-7.563-17.82-.037-35.64-.091-53.459.013-17.867.1-29.5,10.835-29.743,28.7-.43,32.136-.378,64.285-.014,96.423.182,16.08,8.41,25.626,24.408,27.8,14.322,1.943,28.946,2.545,43.145-1.132a33.85,33.85,0,0,0,12.831-7.122c8.407-7.165,10.078-17.443,10.3-27.7C1534.193,1174.268,1533.915,1156.276,1533.916,1138.29Z" fill="#61d9fa"/><path d="M1928.047,1256.239c-5.144,0-9.944-.284-14.7.071-6.2.463-9.829-2.536-11.751-7.94-1.56-4.385-2.687-8.923-4.016-13.39q-15.454-51.963-30.908-103.926-12.3-41.427-24.516-82.878a32.043,32.043,0,0,1-1.114-4.866c-.623-4.757,1.318-7.71,6.08-7.846,10.318-.3,20.655-.245,30.975.026,4.905.129,7.786,3.342,9.089,7.976q5.88,20.921,11.758,41.841,16.579,59.439,33.118,118.888c1.487,5.343,2.894,10.708,4.338,16.063l1.561-.024c.523-1.452,1.143-2.877,1.556-4.36q12.205-43.793,24.366-87.6,11.756-42.369,23.464-84.75c1.425-5.154,4.911-8,10.108-8.129,9.324-.228,18.669-.344,27.983.034,7.225.294,9.609,3.536,7.735,10.567-4.761,17.858-9.837,35.633-14.873,53.418-8.755,30.92-17.478,61.85-26.4,92.724-8.548,29.592-16.9,59.25-26.176,88.616a104.084,104.084,0,0,1-24.94,42.209c-12.407,12.627-27.868,17.936-44.894,19.112-10.614.734-21.319.219-31.982.147-7.108-.047-8.991-1.939-9.039-8.834-.051-7.331-.067-14.663.008-21.994.071-6.866,2.062-8.926,8.947-9.148,7.487-.242,15.006.04,22.465-.52,20.984-1.577,32.071-14.924,38.675-33.317,1.124-3.133,2.071-6.33,3.056-9.512A14.185,14.185,0,0,0,1928.047,1256.239Z" fill="#61d9fa"/><path d="M1718.752,1181.12c-3.388,6.993-6.814,13.968-10.159,20.982q-14.192,29.755-28.3,59.549c-2.2,4.681-5.863,6.592-10.772,6.6-11.829.025-23.658.068-35.486-.007-6.712-.043-8.091-2.317-4.837-8.413,6.036-11.309,12.3-22.5,18.478-33.729,13.325-24.212,26.736-48.377,39.837-72.709,1.016-1.888.7-5.384-.383-7.371-11.661-21.324-23.6-42.5-35.47-63.707-7.155-12.785-14.356-25.543-21.472-38.349-2.615-4.7-1.137-8.21,4.223-8.382,12.309-.4,24.646-.35,36.959-.026,4.975.131,8.529,3.163,10.717,7.842q15.652,33.482,31.494,66.876c1.671,3.535,3.553,6.97,5.338,10.452l1.575.028q4.176-9.42,8.35-18.841c8.5-19.179,17.073-38.326,25.46-57.554,2.754-6.313,7.466-9.095,14.107-9.1,10.329-.017,20.66-.1,30.988.024,7.951.1,9.774,2.99,6.056,9.84-17.315,31.9-34.56,63.833-52.267,95.511-3.542,6.335-3.417,11.15.124,17.353,16.095,28.194,31.735,56.646,47.538,85.006,3.241,5.817,6.647,11.552,9.669,17.481,2.791,5.476,1.317,7.737-4.825,7.774-11.829.071-23.659-.094-35.486.072-5.556.078-9.063-2.381-11.383-7.255q-13.2-27.73-26.551-55.394-5.909-12.3-11.861-24.585Z" fill="#61d9fa"/><path d="M1332.013,1108.429q0,73.965,0,147.93c0,10.771-1.172,11.91-12.132,11.915-7.83,0-15.66.039-23.489-.015-7.459-.052-9.4-1.992-9.41-9.587q-.058-37.233-.018-74.465,0-111.946,0-223.894c0-11.162,1.858-13.017,13.059-13.037,7.164-.013,14.328-.091,21.489.035,7.769.137,10.483,2.92,10.487,10.689Q1332.035,1033.215,1332.013,1108.429Z" fill="#61d9fa"/><path d="M1214.065,1152.708q0,52.469,0,104.938c0,10.1-.55,10.626-10.817,10.628-8.329,0-16.657.044-24.985-.019-6.406-.049-8.956-2.622-9.229-9.119-.056-1.33-.024-2.664-.024-4q0-102.939.008-205.878a62.565,62.565,0,0,1,.229-6.484c.462-4.434,3.023-7.18,7.451-7.283,9.985-.23,19.986-.345,29.966-.039,5.155.158,7.375,3.34,7.383,9.317q.054,41.226.022,82.451Q1214.066,1139.966,1214.065,1152.708Z" fill="#61d9fa"/><path d="M1214.054,977.06c0,6.5.079,12.994-.021,19.489-.1,6.722-2.08,8.71-8.635,8.752-9.161.06-18.324.076-27.484-.008-5.831-.054-8.736-2.666-8.813-8.477q-.267-19.984-.014-39.975c.062-5.6,2.818-8.425,8.306-8.532,9.657-.188,19.323-.171,28.981-.013,5.336.086,7.5,2.347,7.625,7.777.158,6.993.038,13.991.038,20.987Z" fill="#61d9fa"/></g></svg>