<svg width="137" height="31" viewBox="0 0 137 31" fill="none" xmlns="http://www.w3.org/2000/svg">
<path d="M43.7471 21.422V8.36792H47.432C48.5676 8.36792 49.5718 8.61896 50.4445 9.12104C51.3171 9.62312 51.9896 10.3374 52.4618 11.2639C52.9399 12.1903 53.182 13.2542 53.188 14.4557V15.2895C53.188 16.5208 52.9489 17.5996 52.4707 18.5261C51.9985 19.4526 51.3201 20.1638 50.4355 20.6599C49.5569 21.156 48.5318 21.4101 47.3603 21.422H43.7471ZM45.4685 9.78451V20.0144H47.2796C48.6065 20.0144 49.6376 19.602 50.3727 18.7771C51.1139 17.9523 51.4845 16.7778 51.4845 15.2536V14.4915C51.4845 13.0092 51.1348 11.8586 50.4355 11.0397C49.7422 10.2149 48.7559 9.79646 47.4768 9.78451H45.4685Z" fill="white"/>
<path d="M63.1758 15.3881H57.5184V20.0144H64.0903V21.422H55.797V8.36792H64.0007V9.78451H57.5184V13.9805H63.1758V15.3881Z" fill="white"/>
<path d="M70.4919 13.3708L73.6209 8.36792H75.6472L71.5229 14.8412L75.7458 21.422H73.7016L70.4919 16.3295L67.2642 21.422H65.229L69.4608 14.8412L65.3276 8.36792H67.3449L70.4919 13.3708Z" fill="white"/>
<path d="M80.5245 16.5536H76.1492V15.1998H80.5245V16.5536Z" fill="white"/>
<path d="M91.4268 9.78451H87.2309V21.422H85.5184V9.78451H81.3314V8.36792H91.4268V9.78451Z" fill="white"/>
<path d="M98.1511 16.1412H95.0849V21.422H93.3545V8.36792H97.676C99.1463 8.36792 100.276 8.70264 101.065 9.37208C101.86 10.0415 102.257 11.0158 102.257 12.2949C102.257 13.1078 102.036 13.8161 101.594 14.4198C101.158 15.0235 100.548 15.4748 99.765 15.7736L102.831 21.3144V21.422H100.984L98.1511 16.1412ZM95.0849 14.7336H97.7298C98.5845 14.7336 99.2629 14.5124 99.765 14.0701C100.273 13.6278 100.527 13.0361 100.527 12.2949C100.527 11.488 100.285 10.8694 99.8008 10.439C99.3227 10.0086 98.6293 9.79048 97.7208 9.78451H95.0849V14.7336Z" fill="white"/>
<path d="M111.887 18.015H106.418L105.189 21.422H103.414L108.399 8.36792H109.905L114.899 21.422H113.133L111.887 18.015ZM106.938 16.5985H111.376L109.152 10.4928L106.938 16.5985Z" fill="white"/>
<path d="M116.656 21.422V8.36792H120.341C121.477 8.36792 122.481 8.61896 123.354 9.12104C124.226 9.62312 124.899 10.3374 125.371 11.2639C125.849 12.1903 126.091 13.2542 126.097 14.4557V15.2895C126.097 16.5208 125.858 17.5996 125.38 18.5261C124.908 19.4526 124.229 20.1638 123.345 20.6599C122.466 21.156 121.441 21.4101 120.27 21.422H116.656ZM118.378 9.78451V20.0144H120.189C121.516 20.0144 122.547 19.602 123.282 18.7771C124.023 17.9523 124.394 16.7778 124.394 15.2536V14.4915C124.394 13.0092 124.044 11.8586 123.345 11.0397C122.652 10.2149 121.665 9.79646 120.386 9.78451H118.378Z" fill="white"/>
<path d="M136.085 15.3881H130.428V20.0144H137V21.422H128.706V8.36792H136.91V9.78451H130.428V13.9805H136.085V15.3881Z" fill="white"/>
<path fill-rule="evenodd" clip-rule="evenodd" d="M15.3557 0.000124871L11.011 6.8585L9.74166 12.8766L16.7303 7.70938L26.9507 17.1479L15.3557 0.000124871Z" fill="white"/>
<path fill-rule="evenodd" clip-rule="evenodd" d="M30.3057 20.4158L22.8454 2.92719L19.9594 5.35095L30.3057 20.4158Z" fill="white"/>
<path fill-rule="evenodd" clip-rule="evenodd" d="M31.1929 25.5463L27.4435 18.343L22.8821 14.2315L23.8492 22.8857L10.5896 27.0442L31.1929 25.5463Z" fill="white"/>
<path fill-rule="evenodd" clip-rule="evenodd" d="M24.9209 30.5884L24.271 26.8696L6.09056 28.3243L24.9209 30.5884Z" fill="white"/>
<path fill-rule="evenodd" clip-rule="evenodd" d="M15.1421 24.9679L7.18623 21.4808L10.2257 7.88379L1.21734 26.5295L9.31132 26.8743L15.1421 24.9679Z" fill="white"/>
<path fill-rule="evenodd" clip-rule="evenodd" d="M11.3701 3.3357L0.000311011 18.5602L0.000311011 18.5605L3.53595 19.8552L11.3701 3.3357Z" fill="white"/>
<path fill-rule="evenodd" clip-rule="evenodd" d="M23.8492 22.8857L10.5896 27.0442L31.1929 25.5463L23.8492 22.8857Z" fill="white"/>
<path fill-rule="evenodd" clip-rule="evenodd" d="M7.18622 21.4809L10.2256 7.88382L1.21733 26.5295L7.18622 21.4809Z" fill="white"/>
<path fill-rule="evenodd" clip-rule="evenodd" d="M16.7304 7.70938L26.9507 17.1479L15.3558 0.00024122L16.7304 7.70938Z" fill="white"/>
</svg>
