<svg width="195" height="167" viewBox="0 0 195 167" fill="none" xmlns="http://www.w3.org/2000/svg">
<path d="M47.8091 46.0111L7.65745 116.548C4.24217 122.548 8.57526 130 15.479 130H31.6833C34.6925 130 37.5026 128.496 39.1718 125.992L49.4576 110.564C53.1602 105.01 61.4082 105.278 64.7427 111.06L89.1637 153.411C92.6355 159.431 101.331 159.412 104.777 153.376L161.746 53.5732C162.711 51.8825 164.872 51.3071 166.55 52.2942C168.919 53.6874 171.894 51.9265 171.812 49.1799L170.939 19.7823C170.739 13.0406 163.468 8.90659 157.572 12.1821L131.774 26.5143C128.949 28.0841 128.836 32.1067 131.568 33.8327C133.489 35.0459 134.119 37.5541 132.998 39.5304L104.684 89.4525C101.267 95.4763 92.6122 95.546 89.0991 89.578L63.3866 45.8978C59.8768 39.9352 51.2318 39.9981 47.8091 46.0111Z" fill="#3AA4FE" stroke="#3AA4FE"/>
<path d="M164.353 129.5H184.161C188.768 129.5 191.656 124.523 189.37 120.523L167.656 82.5228C165.364 78.5126 159.591 78.4868 157.264 82.4764L146.812 100.394C145.696 102.306 145.724 104.677 146.884 106.562L159.243 126.645C160.335 128.419 162.269 129.5 164.353 129.5Z" fill="#E57A12" stroke="#E57A12"/>
<path d="M120 30.2136L174 60V1L120 30.2136Z" fill="#3AA4FE" stroke="#3AA4FE"/>
</svg>
