<?xml version="1.0" encoding="UTF-8" standalone="no"?>
<svg
   xmlns:dc="http://purl.org/dc/elements/1.1/"
   xmlns:cc="http://creativecommons.org/ns#"
   xmlns:rdf="http://www.w3.org/1999/02/22-rdf-syntax-ns#"
   xmlns:svg="http://www.w3.org/2000/svg"
   xmlns="http://www.w3.org/2000/svg"
   xmlns:sodipodi="http://sodipodi.sourceforge.net/DTD/sodipodi-0.dtd"
   xmlns:inkscape="http://www.inkscape.org/namespaces/inkscape"
   viewBox="0 0 845 200"
   version="1.1"
   id="svg26"
   sodipodi:docname="crex24_white.svg"
   inkscape:version="1.0.2 (e86c870879, 2021-01-15)">
  <metadata
     id="metadata30">
    <rdf:RDF>
      <cc:Work
         rdf:about="">
        <dc:format>image/svg+xml</dc:format>
        <dc:type
           rdf:resource="http://purl.org/dc/dcmitype/StillImage" />
      </cc:Work>
    </rdf:RDF>
  </metadata>
  <sodipodi:namedview
     pagecolor="#ffffff"
     bordercolor="#666666"
     borderopacity="1"
     objecttolerance="10"
     gridtolerance="10"
     guidetolerance="10"
     inkscape:pageopacity="0"
     inkscape:pageshadow="2"
     inkscape:window-width="1920"
     inkscape:window-height="1015"
     id="namedview28"
     showgrid="false"
     inkscape:zoom="1.7881657"
     inkscape:cx="422.5"
     inkscape:cy="100"
     inkscape:window-x="0"
     inkscape:window-y="0"
     inkscape:window-maximized="1"
     inkscape:current-layer="Слой_2" />
  <defs
     id="defs4">
    <style
       id="style2">.cls-1{fill:#061623;}.cls-2{fill:#fff;}</style>
  </defs>
  <title
     id="title6">crex24_white</title>
  <g
     id="Слой_2"
     data-name="Слой 2">
    <rect
       class="cls-1"
       width="845"
       height="200"
       id="rect8"
       style="fill:none" />
  </g>
  <g
     id="Слой_1"
     data-name="Слой 1">
    <path
       class="cls-2"
       d="M205,93.53v11.79a6.41,6.41,0,0,0-.16,1,80.28,80.28,0,0,1-1.41,11.37q-8.52,43-45.39,66.85a96.4,96.4,0,0,1-40.32,14.56c-2.41.32-4.84.54-7.26.8H98.67a6.07,6.07,0,0,0-.85-.16,94.38,94.38,0,0,1-22.06-4c-24.57-7.58-43.56-22.4-57.14-44.18-.2-.32-.54-.61-.41-1.06.09,0,.16-.07.22-.05l.82.29a50.56,50.56,0,0,0,9.45,3c2.8.5,5.59,1,8.41,1.31a36.41,36.41,0,0,0,11,0,53.91,53.91,0,0,1,16.28-.64l1.63.13a4.41,4.41,0,0,0,1.79,0,3,3,0,0,0-.45-.25,45.69,45.69,0,0,0-17.91-2.58,23.92,23.92,0,0,1-3.49.06,25.06,25.06,0,0,1-13.71-5.66,73.61,73.61,0,0,1-15.41-16.4c-4.71-6.8-7.32-14.51-9.23-22.48-.84-3.51-1.32-7.07-1.92-10.62V95.06c.24.53.51,1,.72,1.58a37.41,37.41,0,0,0,6.1,10.66c2.86,3.38,6.32,5.55,10.93,5.42a7.89,7.89,0,0,1,1.08.1,60.46,60.46,0,0,1,15.11,4.56c2.47,1,4.89,2.18,7.47,3.34a2.8,2.8,0,0,0-1.11-.9,116.49,116.49,0,0,1-23-19.75A34.29,34.29,0,0,1,14.13,76.2,89,89,0,0,1,17.4,53.48a1.41,1.41,0,0,1,.68-1c2.66,25,16,42.12,38.37,52.87a1.38,1.38,0,0,0-.58-.91A137.12,137.12,0,0,1,41.29,87.61C33.47,77,29.54,65.29,30.74,52a60.13,60.13,0,0,1,9.07-26.61c.12-.18.19-.5.61-.35,0,.31,0,.63,0,1a102.2,102.2,0,0,0,.44,15.15c.66,5.36,1.61,10.65,4.16,15.5,4,7.62,9.47,14.12,15.49,20.18a1.58,1.58,0,0,0,.37.24c.09-.44-.18-.68-.33-.95a137.63,137.63,0,0,1-9.82-21.76,38.17,38.17,0,0,1-2-18.37c1.42-9.68,5.76-18,11.85-25.52.47-.57,1-1.12,1.49-1.71a.6.6,0,0,1,0,.74,40.4,40.4,0,0,0-3.5,14.89A76.67,76.67,0,0,0,61.86,51a28.66,28.66,0,0,0,5.56,11c.33.38.6.86,1.24,1a3.51,3.51,0,0,0,0-.53,97.77,97.77,0,0,1-1.45-22.27,58.18,58.18,0,0,1,4.39-19.6A31.83,31.83,0,0,1,80.28,8.44,32.81,32.81,0,0,1,93.43,1.62h2A33.77,33.77,0,0,0,91.62,4,33.67,33.67,0,0,0,81.29,18a56.22,56.22,0,0,0-4,19.11,101.38,101.38,0,0,0,1.49,24.66c3,15.19,10.54,27.8,21.79,38.21,7.25,6.71,15.92,9.27,25.73,7.27,3.64-.74,7.08-2,9.78-4.73.87-.87,1.79-1.95,1.25-3.27s-2-1.11-3.15-1.27c-.73-.11-1.87.57-2.09-.08s.82-1.33,1.41-1.9a172.8,172.8,0,0,1,14-12.64c3.09-2.44,5-5.76,6.61-9.23.52-1.09.13-1.58-1-1.34-.87.19-.91-.15-.8-.85.17-1.11.3-2.23.41-3.35a7.64,7.64,0,0,0-.56-4.49,13.91,13.91,0,0,0-10.34-7.4c-2.74-.45-5.45,0-8.16.12-3.74.19-7.47.5-11.21.73-1.17.07-1.34-.12-1-1.12,1.54-5,3.73-9.7,7.61-13.42,1.26-1.21,2.48-2.46,3.68-3.73a4,4,0,0,0,1.29-2c.75-4.45,3.37-7.57,7.12-9.83a28.73,28.73,0,0,1,12.12-3.65c11.49-1.19,20.66,3.46,28.57,11.3A99.64,99.64,0,0,1,204.16,86C204.51,88.47,204.72,91,205,93.53Z"
       transform="translate(-1)"
       id="path11" />
    <path
       class="cls-2"
       d="M305.67,81.78A28.49,28.49,0,0,0,292,78a26.67,26.67,0,0,0-14.18,3.9,27.48,27.48,0,0,0-10.07,10.73,33.27,33.27,0,0,0,0,30.42,27.48,27.48,0,0,0,10.07,10.73,26.67,26.67,0,0,0,14.18,3.9,31.18,31.18,0,0,0,13.23-3.24,41.68,41.68,0,0,0,12.34-8.82l15.73,16.91a62.83,62.83,0,0,1-19.91,14,55.18,55.18,0,0,1-22.86,5.22,54.62,54.62,0,0,1-27.63-7.06,51.52,51.52,0,0,1-19.4-19.25,53.53,53.53,0,0,1-7.06-27.34,51.34,51.34,0,0,1,27-46A58.56,58.56,0,0,1,314.19,60a56.06,56.06,0,0,1,19,13L317.57,91.85A38.5,38.5,0,0,0,305.67,81.78Z"
       transform="translate(-1)"
       id="path13" />
    <path
       class="cls-2"
       d="M409.88,159.9l-15-28.51h-20V159.9H348v-103h46.3q20.42,0,31.67,9.48T437.21,93q0,11.63-4.7,20.07a32.51,32.51,0,0,1-13.67,13.15L440.3,159.9Zm-35-50h19.55q8.24,0,12.72-4.12t4.48-11.9q0-7.5-4.48-11.54t-12.72-4H374.89Z"
       transform="translate(-1)"
       id="path15" />
    <path
       class="cls-2"
       d="M457.64,56.87h81.28V78.33H484.54V97.58h49.09v21.31l-49.09.15v19.4h55.85V159.9H457.64Z"
       transform="translate(-1)"
       id="path17" />
    <path
       class="cls-2"
       d="M553,56.87h31.31l19.25,29.25L623,56.87h31.75l-34,49.23,36.89,53.8H625.49L603.59,128l-21.46,31.9H550.68l36.6-52.47Z"
       transform="translate(-1)"
       id="path19" />
    <path
       class="cls-2"
       d="M745.87,138.29V159.9H667.38l-.15-17.78,37.48-38.51a53.73,53.73,0,0,0,7.21-9.12q2.79-4.55,2.79-7.79a7.64,7.64,0,0,0-3.09-6.54c-2.06-1.51-5-2.28-8.67-2.28a33.55,33.55,0,0,0-13.74,3.46A60.16,60.16,0,0,0,674.58,91L664.29,71.12q21.32-15.44,42.78-15.43a47.87,47.87,0,0,1,18.44,3.38,29.85,29.85,0,0,1,12.79,9.56,22.84,22.84,0,0,1,4.63,14.1q0,8-5.22,16.39a101.8,101.8,0,0,1-14.77,18l-21,21.16Z"
       transform="translate(-1)"
       id="path21" />
    <path
       class="cls-2"
       d="M838.32,117.28v20.43H825.09V159.9H800.4V137.71H753.8V119.48l29.25-62.61h25.58l-27.49,60.41H800.4V95.38h24.69v21.9Z"
       transform="translate(-1)"
       id="path23" />
  </g>
</svg>
