<svg width="640" height="442" viewBox="0 0 640 442" fill="none" xmlns="http://www.w3.org/2000/svg">
<path fill-rule="evenodd" clip-rule="evenodd" d="M120.258 171.447C121.213 167.197 113.742 228.776 115.174 215.434C124.641 163.128 120.667 106.441 141.738 56.6826C146.989 45.702 153.671 38.7357 162.263 39.208C284.461 42.9864 410.477 -83.5856 502.125 197.895C784.707 330.135 521.774 436.399 298.065 426.953C77.0103 417.699 -111.726 258.348 120.258 171.447Z" fill="black" stroke="white" stroke-width="5" stroke-linejoin="round"/>
<path fill-rule="evenodd" clip-rule="evenodd" d="M114.531 209.231C255.821 298.02 488.76 243.235 498.307 199.785C511.672 214.898 498.307 256.459 498.307 256.459C437.208 335.803 141.261 318.801 108.803 262.127C104.984 247.013 112.621 214.898 114.531 209.231Z" fill="white" stroke="black" stroke-width="6.55336"/>
<path fill-rule="evenodd" clip-rule="evenodd" d="M142.359 225.586C165.271 236.921 230.999 254.001 257.73 255.89C276.823 269.114 267.276 292.353 259.639 307.466C208.087 307.466 148.898 294.242 133.623 277.24C124.076 260.237 132.812 242.588 142.359 225.586Z" fill="white" fill-opacity="0.316667" stroke="black" stroke-width="2.46189"/>
</svg>
