<?xml version="1.0" standalone="no"?>
<!DOCTYPE svg PUBLIC "-//W3C//DTD SVG 20010904//EN"
 "http://www.w3.org/TR/2001/REC-SVG-20010904/DTD/svg10.dtd">
<svg version="1.0" xmlns="http://www.w3.org/2000/svg"
 width="958.000000pt" height="958.000000pt" viewBox="0 0 958.000000 958.000000"
 preserveAspectRatio="xMidYMid meet">
<metadata>
Created by potrace 1.11, written by Peter Selinger 2001-2013
</metadata>
<g transform="translate(0.000000,958.000000) scale(0.100000,-0.100000)"
fill="#000000" stroke="none">
<path d="M5588 8225 c-2 -2 -19 -6 -38 -9 -78 -10 -242 -59 -330 -98 -75 -33
-222 -109 -230 -119 -3 -4 -19 -15 -36 -25 -46 -28 -117 -76 -131 -88 -7 -6
-18 -15 -25 -21 -130 -101 -182 -150 -403 -372 -263 -264 -329 -306 -520 -329
-27 -3 -61 -7 -75 -10 -76 -12 -577 -23 -607 -12 -12 4 -24 4 -27 0 -3 -4 -38
-6 -78 -5 -190 9 -568 10 -568 2 0 -4 -6 -6 -14 -3 -14 5 -155 -19 -216 -37
-143 -43 -307 -146 -422 -264 -32 -33 -58 -62 -58 -66 0 -3 -9 -17 -21 -30
-21 -24 -101 -164 -99 -174 0 -3 -7 -19 -15 -35 -9 -17 -13 -30 -9 -30 4 0 2
-6 -5 -13 -15 -19 -49 -170 -56 -251 -3 -39 -7 -72 -10 -74 -2 -2 0 -14 5 -27
5 -13 6 -26 3 -29 -5 -5 -8 -171 -3 -171 1 0 3 -38 5 -85 3 -92 13 -214 21
-270 3 -19 6 -58 8 -86 1 -28 5 -55 8 -60 2 -5 5 -25 6 -44 1 -19 6 -57 12
-85 5 -27 11 -72 14 -100 3 -27 7 -59 9 -70 3 -11 8 -47 11 -80 4 -33 10 -76
13 -95 3 -19 7 -46 8 -60 2 -14 4 -25 5 -25 1 0 3 -13 5 -30 5 -45 15 -127 20
-155 2 -14 7 -50 10 -80 4 -30 9 -63 11 -74 2 -10 6 -42 8 -70 3 -29 7 -59 10
-67 4 -13 14 -82 22 -159 6 -60 29 -205 39 -250 3 -14 7 -38 10 -55 2 -16 7
-43 11 -60 10 -50 13 -68 20 -115 3 -25 10 -53 15 -62 7 -13 2 -18 -24 -26
-41 -13 -168 -37 -184 -36 -7 1 -13 -1 -13 -5 0 -4 -15 -8 -32 -9 -18 -1 -47
-7 -64 -13 -18 -5 -36 -9 -40 -8 -5 1 -16 0 -24 -4 -8 -3 -100 -26 -205 -52
-104 -25 -197 -49 -205 -52 -8 -3 -21 -7 -28 -9 -8 -1 -21 -6 -30 -10 -9 -4
-24 -8 -32 -9 -15 -2 -243 -71 -270 -82 -8 -3 -19 -7 -25 -9 -100 -25 -333
-133 -434 -202 -127 -86 -203 -168 -254 -272 -26 -54 -32 -78 -33 -140 -1 -41
1 -79 4 -85 4 -5 7 -15 8 -21 1 -7 15 -40 30 -75 52 -117 149 -247 273 -363
30 -28 65 -61 78 -73 13 -13 28 -23 33 -23 5 0 13 -6 17 -14 8 -14 251 -186
293 -208 14 -7 27 -15 30 -18 26 -26 448 -237 491 -245 9 -2 25 -8 35 -13 32
-17 284 -106 333 -117 9 -2 41 -11 71 -20 30 -8 68 -17 84 -20 16 -3 32 -8 36
-10 4 -2 22 -7 41 -10 19 -3 42 -8 52 -11 10 -3 30 -7 45 -9 15 -3 36 -6 47
-8 11 -3 54 -10 95 -17 41 -6 86 -13 100 -16 25 -4 126 -14 186 -18 16 -1 34
-5 40 -8 12 -7 634 -2 694 6 25 3 69 8 99 11 30 3 68 8 85 10 17 2 51 7 76 10
43 5 64 8 120 20 14 3 43 8 65 11 22 3 69 12 105 20 36 7 76 15 90 18 14 2 45
9 70 16 25 7 52 14 60 15 8 1 22 5 30 8 14 5 185 53 220 61 42 10 327 110 338
119 6 5 12 7 12 4 0 -3 12 0 27 8 15 8 30 12 35 9 4 -3 8 0 8 5 0 6 6 11 14
11 13 0 61 19 153 61 24 10 47 19 53 19 5 0 10 5 10 12 0 6 3 9 6 5 4 -3 33 7
65 23 32 17 65 30 73 30 8 0 16 3 18 8 2 4 64 37 138 74 74 37 162 83 195 102
33 19 78 44 99 56 70 38 251 154 254 162 2 4 8 8 13 8 9 0 85 51 140 95 15 11
41 31 59 45 18 14 37 30 44 35 6 6 34 28 61 50 28 22 52 43 55 46 3 3 50 43
105 89 55 46 102 87 105 90 3 3 32 28 64 55 33 28 74 64 92 80 17 17 53 48 78
70 54 45 70 60 148 130 30 28 66 59 79 70 13 11 49 43 79 70 31 28 85 75 120
105 35 30 68 60 74 65 6 6 52 44 101 85 50 41 92 77 95 80 4 5 48 40 123 100
11 8 25 21 32 27 8 7 16 13 20 13 3 0 20 13 38 30 18 16 38 30 45 30 6 0 12 4
12 9 0 5 27 26 60 47 33 22 60 42 60 47 0 4 4 7 8 7 4 0 51 28 103 63 52 34
108 69 125 77 16 8 31 17 34 21 9 10 213 107 325 155 61 25 138 59 173 75 35
16 66 29 68 29 16 0 454 213 454 220 0 4 6 7 13 7 14 0 185 100 205 120 7 7
17 13 22 13 33 0 301 249 316 293 3 9 10 17 15 17 5 0 9 5 9 12 0 6 6 19 14
27 28 31 85 147 112 226 33 99 42 276 18 365 -9 30 -17 62 -19 71 -6 27 -86
172 -118 214 -124 162 -309 262 -517 281 -30 2 -59 5 -65 6 -17 2 -189 -12
-215 -17 -14 -3 -40 -7 -57 -10 -68 -9 -103 -18 -109 -26 -3 -5 -8 -7 -12 -5
-4 2 -59 -13 -122 -35 -63 -21 -122 -41 -131 -43 -9 -2 -25 -9 -35 -14 -11 -6
-73 -34 -139 -63 -117 -52 -293 -139 -400 -199 l-54 -30 -16 57 c-9 32 -20 68
-25 80 -5 12 -21 57 -36 100 -37 107 -114 302 -159 398 -107 230 -343 694
-406 798 -16 26 -29 49 -29 52 0 5 -118 192 -133 210 -4 6 -35 48 -69 95 -108
150 -259 314 -382 415 -27 22 -63 51 -80 66 -17 14 -56 43 -86 64 -30 22 -57
42 -60 45 -13 13 -196 110 -219 115 -9 2 -39 11 -68 18 -45 13 -195 21 -205
12z"/>
</g>
</svg>
