<svg xmlns="http://www.w3.org/2000/svg">
    <symbol id="icon-home" viewBox="0 0 576 512">
        <g>
            <path d="M541 229.16l-61-49.83v-77.4a6 6 0 0 0-6-6h-20a6 6 0 0 0-6 6v51.33L308.19 39.14a32.16 32.16 0 0 0-40.38 0L35 229.16a8 8 0 0 0-1.16 11.24l10.1 12.41a8 8 0 0 0 11.2 1.19L96 220.62v243a16 16 0 0 0 16 16h128a16 16 0 0 0 16-16v-128l64 .3V464a16 16 0 0 0 16 16l128-.33a16 16 0 0 0 16-16V220.62L520.86 254a8 8 0 0 0 11.25-1.16l10.1-12.41a8 8 0 0 0-1.21-11.27zm-93.11 218.59h.1l-96 .3V319.88a16.05 16.05 0 0 0-15.95-16l-96-.27a16 16 0 0 0-16.05 16v128.14H128V194.51L288 63.94l160 130.57z"></path>
        </g>
    </symbol>
    <symbol id="icon-star" viewBox="0 0 576 512">
        <g>
            <path d="M528.1 171.5L382 150.2 316.7 17.8c-11.7-23.6-45.6-23.9-57.4 0L194 150.2 47.9 171.5c-26.2 3.8-36.7 36.1-17.7 54.6l105.7 103-25 145.5c-4.5 26.3 23.2 46 46.4 33.7L288 439.6l130.7 68.7c23.2 12.2 50.9-7.4 46.4-33.7l-25-145.5 105.7-103c19-18.5 8.5-50.8-17.7-54.6zM405.8 317.9l27.8 162L288 403.5 142.5 480l27.8-162L52.5 203.1l162.7-23.6L288 32l72.8 147.5 162.7 23.6-117.7 114.8z"></path>
        </g>
    </symbol>
    <symbol id="icon-marker" viewBox="0 0 384 512">
        <g>
            <path d="M192 0C86.4 0 0 86.4 0 192c0 76.8 25.6 99.2 172.8 310.4 4.8 6.4 12 9.6 19.2 9.6s14.4-3.2
                                      19.2-9.6C358.4 291.2 384 268.8 384 192 384 86.4 297.6 0 192 0zm.01
                                      474c-19.67-28.17-37.09-52.85-52.49-74.69C42.64 261.97 32 245.11 32 192c0-88.22 71.78-160
                                      160-160s160 71.78 160 160c0 53.11-10.64 69.97-107.52 207.31-15.52 22.01-33.09
                                      46.92-52.47 74.69zm89.33-339.54a7.98 7.98 0 0 0-5.66-2.34c-2.05 0-4.1.78-5.66
                                      2.34L162.54 241.94l-48.57-48.57a7.98 7.98 0 0 0-5.66-2.34c-2.05 0-4.1.78-5.66
                                      2.34l-11.31 11.31c-3.12 3.12-3.12 8.19 0 11.31l65.54 65.54c1.56 1.56 3.61 2.34
                                      5.66 2.34s4.09-.78 5.65-2.34l124.45-124.45c3.12-3.12 3.12-8.19 0-11.31l-11.3-11.31z">
            </path>
        </g>
    </symbol>
    <symbol id="icon-cog" viewBox="0 0 512 512">
        <g>
            <path d="M482.696 299.276l-32.61-18.827a195.168 195.168 0 0 0 0-48.899l32.61-18.827c9.576-5.528 14.195-16.902 11.046-27.501-11.214-37.749-31.175-71.728-57.535-99.595-7.634-8.07-19.817-9.836-29.437-4.282l-32.562 18.798a194.125 194.125 0 0 0-42.339-24.48V38.049c0-11.13-7.652-20.804-18.484-23.367-37.644-8.909-77.118-8.91-114.77 0-10.831 2.563-18.484 12.236-18.484 23.367v37.614a194.101 194.101 0 0 0-42.339 24.48L105.23 81.345c-9.621-5.554-21.804-3.788-29.437 4.282-26.36 27.867-46.321 61.847-57.535 99.595-3.149 10.599 1.47 21.972 11.046 27.501l32.61 18.827a195.168 195.168 0 0 0 0 48.899l-32.61 18.827c-9.576 5.528-14.195 16.902-11.046 27.501 11.214 37.748 31.175 71.728 57.535 99.595 7.634 8.07 19.817 9.836 29.437 4.283l32.562-18.798a194.08 194.08 0 0 0 42.339 24.479v37.614c0 11.13 7.652 20.804 18.484 23.367 37.645 8.909 77.118 8.91 114.77 0 10.831-2.563 18.484-12.236 18.484-23.367v-37.614a194.138 194.138 0 0 0 42.339-24.479l32.562 18.798c9.62 5.554 21.803 3.788 29.437-4.283 26.36-27.867 46.321-61.847 57.535-99.595 3.149-10.599-1.47-21.972-11.046-27.501zm-65.479 100.461l-46.309-26.74c-26.988 23.071-36.559 28.876-71.039 41.059v53.479a217.145 217.145 0 0 1-87.738 0v-53.479c-33.621-11.879-43.355-17.395-71.039-41.059l-46.309 26.74c-19.71-22.09-34.689-47.989-43.929-75.958l46.329-26.74c-6.535-35.417-6.538-46.644 0-82.079l-46.329-26.74c9.24-27.969 24.22-53.869 43.929-75.969l46.309 26.76c27.377-23.434 37.063-29.065 71.039-41.069V44.464a216.79 216.79 0 0 1 87.738 0v53.479c33.978 12.005 43.665 17.637 71.039 41.069l46.309-26.76c19.709 22.099 34.689 47.999 43.929 75.969l-46.329 26.74c6.536 35.426 6.538 46.644 0 82.079l46.329 26.74c-9.24 27.968-24.219 53.868-43.929 75.957zM256 160c-52.935 0-96 43.065-96 96s43.065 96 96 96 96-43.065 96-96-43.065-96-96-96zm0 160c-35.29 0-64-28.71-64-64s28.71-64 64-64 64 28.71 64 64-28.71 64-64 64z"></path>
        </g>
    </symbol>
    <symbol id="icon-wallet" viewBox="0 0 512 512">
        <g>
            <path d="M384 256c-17.67 0-32 14.33-32 32s14.33 32 32 32 32-14.33 32-32-14.33-32-32-32zm80-160h-16V80c0-26.51-21.49-48-48-48H96C42.98 32 0 74.98 0 128v256c0 53.02 42.98 96 96 96h352c35.35 0 64-28.65 64-64V144c0-26.51-21.49-48-48-48zm16 320c0 17.64-14.36 32-32 32H96c-35.29 0-64-28.71-64-64V128c0-35.29 28.71-64 64-64h304c8.82 0 16 7.18 16 16v16H112c-8.84 0-16 7.16-16 16s7.16 16 16 16h352c8.82 0 16 7.18 16 16v272z"></path>
        </g>
    </symbol>
    <symbol id="icon-sync" viewBox="0 0 512 512">
        <g>
            <path d="M492 8h-10c-6.627 0-12 5.373-12 12v110.627C426.929 57.261 347.224 8 256 8 123.228 8 14.824 112.338 8.31 243.493 7.971 250.311 13.475 256 20.301 256h10.016c6.353 0 11.646-4.949 11.977-11.293C48.157 132.216 141.097 42 256 42c82.862 0 154.737 47.077 190.289 116H332c-6.627 0-12 5.373-12 12v10c0 6.627 5.373 12 12 12h160c6.627 0 12-5.373 12-12V20c0-6.627-5.373-12-12-12zm-.301 248h-10.015c-6.352 0-11.647 4.949-11.977 11.293C463.841 380.158 370.546 470 256 470c-82.608 0-154.672-46.952-190.299-116H180c6.627 0 12-5.373 12-12v-10c0-6.627-5.373-12-12-12H20c-6.627 0-12 5.373-12 12v160c0 6.627 5.373 12 12 12h10c6.627 0 12-5.373 12-12V381.373C85.071 454.739 164.777 504 256 504c132.773 0 241.176-104.338 247.69-235.493.339-6.818-5.165-12.507-11.991-12.507z"></path>
        </g>
    </symbol>
    <symbol id="icon-arrow-circle-down" viewBox="0 0 512 512">
        <g>
            <path d="M256 8C119 8 8 119 8 256s111 248 248 248 248-111 248-248S393 8 256 8zm216 248c0 118.7-96.1 216-216 216-118.7 0-216-96.1-216-216 0-118.7 96.1-216 216-216 118.7 0 216 96.1 216 216zm-92.5-4.5l-6.9-6.9c-4.7-4.7-12.5-4.7-17.1.2L273 330.3V140c0-6.6-5.4-12-12-12h-10c-6.6 0-12 5.4-12 12v190.3l-82.5-85.6c-4.7-4.8-12.4-4.9-17.1-.2l-6.9 6.9c-4.7 4.7-4.7 12.3 0 17l115 115.1c4.7 4.7 12.3 4.7 17 0l115-115.1c4.7-4.6 4.7-12.2 0-16.9z"></path>
        </g>
    </symbol>
    <symbol id="icon-check" viewBox="0 0 512 512">
        <g>
            <g>
                <path d="M497.36,69.995c-7.532-7.545-19.753-7.558-27.285-0.032L238.582,300.845l-83.522-90.713
			c-7.217-7.834-19.419-8.342-27.266-1.126c-7.841,7.217-8.343,19.425-1.126,27.266l97.126,105.481
			c3.557,3.866,8.535,6.111,13.784,6.22c0.141,0.006,0.277,0.006,0.412,0.006c5.101,0,10.008-2.026,13.623-5.628L497.322,97.286
			C504.873,89.761,504.886,77.54,497.36,69.995z"/>
            </g>
        </g>
        <g>
            <g>
                <path d="M492.703,236.703c-10.658,0-19.296,8.638-19.296,19.297c0,119.883-97.524,217.407-217.407,217.407
			c-119.876,0-217.407-97.524-217.407-217.407c0-119.876,97.531-217.407,217.407-217.407c10.658,0,19.297-8.638,19.297-19.296
			C275.297,8.638,266.658,0,256,0C114.84,0,0,114.84,0,256c0,141.154,114.84,256,256,256c141.154,0,256-114.846,256-256
			C512,245.342,503.362,236.703,492.703,236.703z"/>
            </g>
        </g>
    </symbol>
    <symbol id="icon-cross" viewBox="0 0 512 512">
        <g>
            <path d="m256 512c-141.160156 0-256-114.839844-256-256s114.839844-256 256-256 256 114.839844 256 256-114.839844 256-256 256zm0-475.429688c-120.992188 0-219.429688 98.4375-219.429688 219.429688s98.4375 219.429688 219.429688 219.429688 219.429688-98.4375 219.429688-219.429688-98.4375-219.429688-219.429688-219.429688zm0 0"/>
            <path d="m347.429688 365.714844c-4.679688 0-9.359376-1.785156-12.929688-5.359375l-182.855469-182.855469c-7.144531-7.144531-7.144531-18.714844 0-25.855469 7.140625-7.140625 18.714844-7.144531 25.855469 0l182.855469 182.855469c7.144531 7.144531 7.144531 18.714844 0 25.855469-3.570313 3.574219-8.246094 5.359375-12.925781 5.359375zm0 0"/>
            <path d="m164.570312 365.714844c-4.679687 0-9.355468-1.785156-12.925781-5.359375-7.144531-7.140625-7.144531-18.714844 0-25.855469l182.855469-182.855469c7.144531-7.144531 18.714844-7.144531 25.855469 0 7.140625 7.140625 7.144531 18.714844 0 25.855469l-182.855469 182.855469c-3.570312 3.574219-8.25 5.359375-12.929688 5.359375zm0 0"/>
        </g>
    </symbol>
    <symbol id="icon-preloader" viewBox="0 0 958 688">
        <g clip-path="url(#clip0)">
            <path d="M368.859 110.93C368.859 110.93 324.419 112.93 281.349 110.93C240.349 109 220.289 116.73 204.559 127.72C191.839 136.59 172.069 153.24 164.729 187.51C157.389 221.78 168.829 294.87 168.829 294.87L185.599 416.87L210.399 547.8C210.399 547.8 355.499 549.86 489.279 496.35C623.059 442.84 769.189 329.27 769.189 329.27C769.189 329.27 768.709 325.1 766.659 307.61C764.609 290.12 750.659 231.88 725.969 181.46C701.279 131.04 674.999 73.6296 631.289 36.3596C583.999 -4.00045 581.569 -3.18045 529.569 10.9995C521.239 13.2695 515.459 14.4295 470.979 48.4195C459.269 57.3795 420.329 95.9995 420.329 95.9995C420.329 95.9995 405.339 108.34 368.859 110.93Z"
                  fill="black"/>
            <path d="M202.62 456.09C202.62 456.09 135.27 466.52 67.3495 490.18C-0.570457 513.84 2.51954 547.82 2.51954 547.82C2.51954 547.82 1.76954 570.43 35.4495 601.33C66.7095 630 179.06 711.05 358.58 677.48C485.4 653.76 577.75 583.48 577.75 583.48C666.4 513 731.64 438.58 803.89 407.73C853.76 386.43 900.559 366.58 925.109 342.45C941.449 326.4 966.169 291.39 948.419 253.87C931.279 217.6 897.74 204.33 850.03 215.39C802.32 226.45 740.78 265.08 740.78 265.08L202.62 456.09Z"
                  fill="black" stroke="black" stroke-width="5" stroke-miterlimit="10"/>
            <path d="M769.19 296.72C769.19 296.72 832.7 248.92 867.82 243.72C897.6 239.31 914.82 244.72 921.82 247.01C953.15 257.01 966.66 284.25 929.95 336.4C918.56 352.58 861.49 381.2 836.18 393.8C735.04 444.15 745.05 413.46 624.06 476.65C591.22 493.81 491.41 532.37 411 540.85C292.33 553.37 210.42 547.85 210.42 547.85C210.42 547.85 386.42 537.08 438.92 511.85C491.42 486.62 634.13 422 665 394.56C695.87 367.12 769.19 296.72 769.19 296.72Z"
                  fill="black"/>
            <path d="M202.62 456.09C202.62 456.09 135.27 466.52 67.3495 490.18C-0.570457 513.84 2.51954 547.82 2.51954 547.82C2.51954 547.82 1.76954 570.43 35.4495 601.33C66.7095 630 179.06 711.05 358.58 677.48C485.4 653.76 577.75 583.48 577.75 583.48C666.4 513 731.64 438.58 803.89 407.73C853.76 386.43 900.559 366.58 925.109 342.45C941.449 326.4 966.169 291.39 948.419 253.87C931.279 217.6 897.74 204.33 850.03 215.39C802.32 226.45 740.78 265.08 740.78 265.08L202.62 456.09Z"
                  stroke="white" stroke-width="5" stroke-miterlimit="10"/>
            <path d="M251.999 127.68C230.119 141.99 214.509 170.68 207.789 188.22C205.789 193.52 202.979 204.73 214.519 209.93C226.059 215.13 352.409 181.69 387.299 160.93C447.149 125.39 476.609 71.4802 490.369 55.0402C524.879 13.8302 564.999 2.66016 564.999 2.66016C564.999 2.66016 546.289 3.00016 519.909 14.4902C508.599 19.4202 495.909 27.6502 482.639 36.7202C434.399 69.8102 440.229 85.7202 410.029 100.39C380.029 114.95 331.759 110.79 315.669 111.77C274.769 114.26 265.999 118.49 251.999 127.68Z"
                  fill="black"/>
            <path d="M551.72 11.459C543.47 17.409 527.09 30.609 493.9 86.219C485.75 99.859 456.15 150.659 404.16 183.459C361.56 210.329 295.58 220.649 284.59 226.139C269.42 233.709 257.71 242.209 265.2 296.449C272.69 350.689 285.77 418.999 285.77 418.999C285.77 418.999 454.56 419.929 479.12 412.449C503.68 404.969 684.1 389.999 701.43 377.999C718.76 365.999 769.19 329.279 769.19 329.279C769.19 329.279 764.47 241.979 696.81 121.879C685.97 102.629 674.81 83.119 660.19 65.319C643.51 44.999 622.8 26.919 602.36 12.799C578.79 -3.49096 565.67 1.40904 551.72 11.459Z"
                  fill="black"/>
            <path d="M185.6 416.88L210.4 547.81C210.4 547.81 313.23 545 364 534.74C442 519 505.51 491.17 549.4 469C620.23 433.22 704.4 372.93 704.4 372.93C704.4 372.93 549.94 402.81 511.79 406.88C473.64 410.95 342.35 418.35 285.79 418.97C260.72 419.24 185.6 416.88 185.6 416.88Z"
                  fill="white"/>
            <path d="M368.859 110.93C368.859 110.93 324.419 112.93 281.349 110.93C240.349 109 220.289 116.73 204.559 127.72C191.839 136.59 172.069 153.24 164.729 187.51C157.389 221.78 168.829 294.87 168.829 294.87L185.599 416.87L210.399 547.8C210.399 547.8 355.499 549.86 489.279 496.35C623.059 442.84 769.189 329.27 769.189 329.27C769.189 329.27 768.709 325.1 766.659 307.61C764.609 290.12 750.659 231.88 725.969 181.46C701.279 131.04 674.999 73.6302 631.289 36.3602C583.999 -3.99981 568.279 -0.269815 540.439 7.37018C478.529 24.3702 433.509 87.0002 420.329 96.0002C407.149 105 405.339 108.34 368.859 110.93Z"
                  stroke="white" stroke-width="5" stroke-miterlimit="10"/>
        </g>
        <defs>
            <clipPath id="clip0">
                <rect width="957.07" height="687.99" fill="white"/>
            </clipPath>
        </defs>
    </symbol>
    <symbol id="icon-backet" viewBox="0 0 576 512">
        <g>
            <path d="M551.991 64H129.28l-8.329-44.423C118.822 8.226 108.911 0 97.362 0H12C5.373 0 0 5.373 0 12v8c0 6.627 5.373 12 12 12h78.72l69.927 372.946C150.305 416.314 144 431.42 144 448c0 35.346 28.654 64 64 64s64-28.654 64-64a63.681 63.681 0 0 0-8.583-32h145.167a63.681 63.681 0 0 0-8.583 32c0 35.346 28.654 64 64 64 35.346 0 64-28.654 64-64 0-17.993-7.435-34.24-19.388-45.868C506.022 391.891 496.76 384 485.328 384H189.28l-12-64h331.381c11.368 0 21.177-7.976 23.496-19.105l43.331-208C578.592 77.991 567.215 64 551.991 64zM240 448c0 17.645-14.355 32-32 32s-32-14.355-32-32 14.355-32 32-32 32 14.355 32 32zm224 32c-17.645 0-32-14.355-32-32s14.355-32 32-32 32 14.355 32 32-14.355 32-32 32zm38.156-192H171.28l-36-192h406.876l-40 192z"></path>
        </g>
    </symbol>
    <symbol id="icon-file" viewBox="0 0 384 512">
        <g>
            <path d="M369.9 97.9L286 14C277 5 264.8-.1 252.1-.1H48C21.5 0 0 21.5 0 48v416c0 26.5 21.5 48 48 48h288c26.5 0 48-21.5 48-48V131.9c0-12.7-5.1-25-14.1-34zm-22.6 22.7c2.1 2.1 3.5 4.6 4.2 7.4H256V32.5c2.8.7 5.3 2.1 7.4 4.2l83.9 83.9zM336 480H48c-8.8 0-16-7.2-16-16V48c0-8.8 7.2-16 16-16h176v104c0 13.3 10.7 24 24 24h104v304c0 8.8-7.2 16-16 16z"></path>
        </g>
    </symbol>
    <symbol id="icon-tw" viewBox="0 0 512 512">
        <g>
            <path d="M459.37 151.716c.325 4.548.325 9.097.325 13.645 0 138.72-105.583 298.558-298.558 298.558-59.452 0-114.68-17.219-161.137-47.106 8.447.974 16.568 1.299 25.34 1.299 49.055 0 94.213-16.568 130.274-44.832-46.132-.975-84.792-31.188-98.112-72.772 6.498.974 12.995 1.624 19.818 1.624 9.421 0 18.843-1.3 27.614-3.573-48.081-9.747-84.143-51.98-84.143-102.985v-1.299c13.969 7.797 30.214 12.67 47.431 13.319-28.264-18.843-46.781-51.005-46.781-87.391 0-19.492 5.197-37.36 14.294-52.954 51.655 63.675 129.3 105.258 216.365 109.807-1.624-7.797-2.599-15.918-2.599-24.04 0-57.828 46.782-104.934 104.934-104.934 30.213 0 57.502 12.67 76.67 33.137 23.715-4.548 46.456-13.32 66.599-25.34-7.798 24.366-24.366 44.833-46.132 57.827 21.117-2.273 41.584-8.122 60.426-16.243-14.292 20.791-32.161 39.308-52.628 54.253z"></path>
        </g>
    </symbol>
    <symbol id="icon-tele" viewBox="0 0 448 512">
        <g>
            <path d="M446.7 98.6l-67.6 318.8c-5.1 22.5-18.4 28.1-37.3 17.5l-103-75.9-49.7 47.8c-5.5 5.5-10.1 10.1-20.7 10.1l7.4-104.9 190.9-172.5c8.3-7.4-1.8-11.5-12.9-4.1L117.8 284 16.2 252.2c-22.1-6.9-22.5-22.1 4.6-32.7L418.2 66.4c18.4-6.9 34.5 4.1 28.5 32.2z"></path>
        </g>
    </symbol>
    <symbol id="icon-discord" viewBox="0 0 448 512">
        <g>
            <path d="M297.216 243.2c0 15.616-11.52 28.416-26.112 28.416-14.336 0-26.112-12.8-26.112-28.416s11.52-28.416 26.112-28.416c14.592 0 26.112 12.8 26.112 28.416zm-119.552-28.416c-14.592 0-26.112 12.8-26.112 28.416s11.776 28.416 26.112 28.416c14.592 0 26.112-12.8 26.112-28.416.256-15.616-11.52-28.416-26.112-28.416zM448 52.736V512c-64.494-56.994-43.868-38.128-118.784-107.776l13.568 47.36H52.48C23.552 451.584 0 428.032 0 398.848V52.736C0 23.552 23.552 0 52.48 0h343.04C424.448 0 448 23.552 448 52.736zm-72.96 242.688c0-82.432-36.864-149.248-36.864-149.248-36.864-27.648-71.936-26.88-71.936-26.88l-3.584 4.096c43.52 13.312 63.744 32.512 63.744 32.512-60.811-33.329-132.244-33.335-191.232-7.424-9.472 4.352-15.104 7.424-15.104 7.424s21.248-20.224 67.328-33.536l-2.56-3.072s-35.072-.768-71.936 26.88c0 0-36.864 66.816-36.864 149.248 0 0 21.504 37.12 78.08 38.912 0 0 9.472-11.52 17.152-21.248-32.512-9.728-44.8-30.208-44.8-30.208 3.766 2.636 9.976 6.053 10.496 6.4 43.21 24.198 104.588 32.126 159.744 8.96 8.96-3.328 18.944-8.192 29.44-15.104 0 0-12.8 20.992-46.336 30.464 7.68 9.728 16.896 20.736 16.896 20.736 56.576-1.792 78.336-38.912 78.336-38.912z"></path>
        </g>
    </symbol>
    <symbol id="icon-git" viewBox="0 0 496 512">
        <g>
            <path d="M165.9 397.4c0 2-2.3 3.6-5.2 3.6-3.3.3-5.6-1.3-5.6-3.6 0-2 2.3-3.6 5.2-3.6 3-.3 5.6 1.3 5.6 3.6zm-31.1-4.5c-.7 2 1.3 4.3 4.3 4.9 2.6 1 5.6 0 6.2-2s-1.3-4.3-4.3-5.2c-2.6-.7-5.5.3-6.2 2.3zm44.2-1.7c-2.9.7-4.9 2.6-4.6 4.9.3 2 2.9 3.3 5.9 2.6 2.9-.7 4.9-2.6 4.6-4.6-.3-1.9-3-3.2-5.9-2.9zM244.8 8C106.1 8 0 113.3 0 252c0 110.9 69.8 205.8 169.5 239.2 12.8 2.3 17.3-5.6 17.3-12.1 0-6.2-.3-40.4-.3-61.4 0 0-70 15-84.7-29.8 0 0-11.4-29.1-27.8-36.6 0 0-22.9-15.7 1.6-15.4 0 0 24.9 2 38.6 25.8 21.9 38.6 58.6 27.5 72.9 20.9 2.3-16 8.8-27.1 16-33.7-55.9-6.2-112.3-14.3-112.3-110.5 0-27.5 7.6-41.3 23.6-58.9-2.6-6.5-11.1-33.3 2.6-67.9 20.9-6.5 69 27 69 27 20-5.6 41.5-8.5 62.8-8.5s42.8 2.9 62.8 8.5c0 0 48.1-33.6 69-27 13.7 34.7 5.2 61.4 2.6 67.9 16 17.7 25.8 31.5 25.8 58.9 0 96.5-58.9 104.2-114.8 110.5 9.2 7.9 17 22.9 17 46.4 0 33.7-.3 75.4-.3 83.6 0 6.5 4.6 14.4 17.3 12.1C428.2 457.8 496 362.9 496 252 496 113.3 383.5 8 244.8 8zM97.2 352.9c-1.3 1-1 3.3.7 5.2 1.6 1.6 3.9 2.3 5.2 1 1.3-1 1-3.3-.7-5.2-1.6-1.6-3.9-2.3-5.2-1zm-10.8-8.1c-.7 1.3.3 2.9 2.3 3.9 1.6 1 3.6.7 4.3-.7.7-1.3-.3-2.9-2.3-3.9-2-.6-3.6-.3-4.3.7zm32.4 35.6c-1.6 1.3-1 4.3 1.3 6.2 2.3 2.3 5.2 2.6 6.5 1 1.3-1.3.7-4.3-1.3-6.2-2.2-2.3-5.2-2.6-6.5-1zm-11.4-14.7c-1.6 1-1.6 3.6 0 5.9 1.6 2.3 4.3 3.3 5.6 2.3 1.6-1.3 1.6-3.9 0-6.2-1.4-2.3-4-3.3-5.6-2z"></path>
        </g>
    </symbol>

</svg>