<svg xmlns="http://www.w3.org/2000/svg">
    <symbol id="icon-home" viewBox="0 0 576 512">
        <g>
            <path d="M541 229.16l-61-49.83v-77.4a6 6 0 0 0-6-6h-20a6 6 0 0 0-6 6v51.33L308.19 39.14a32.16 32.16 0 0 0-40.38 0L35 229.16a8 8 0 0 0-1.16 11.24l10.1 12.41a8 8 0 0 0 11.2 1.19L96 220.62v243a16 16 0 0 0 16 16h128a16 16 0 0 0 16-16v-128l64 .3V464a16 16 0 0 0 16 16l128-.33a16 16 0 0 0 16-16V220.62L520.86 254a8 8 0 0 0 11.25-1.16l10.1-12.41a8 8 0 0 0-1.21-11.27zm-93.11 218.59h.1l-96 .3V319.88a16.05 16.05 0 0 0-15.95-16l-96-.27a16 16 0 0 0-16.05 16v128.14H128V194.51L288 63.94l160 130.57z"></path>
        </g>
    </symbol>
    <symbol id="icon-star" viewBox="0 0 576 512">
        <g>
            <path d="M528.1 171.5L382 150.2 316.7 17.8c-11.7-23.6-45.6-23.9-57.4 0L194 150.2 47.9 171.5c-26.2 3.8-36.7 36.1-17.7 54.6l105.7 103-25 145.5c-4.5 26.3 23.2 46 46.4 33.7L288 439.6l130.7 68.7c23.2 12.2 50.9-7.4 46.4-33.7l-25-145.5 105.7-103c19-18.5 8.5-50.8-17.7-54.6zM405.8 317.9l27.8 162L288 403.5 142.5 480l27.8-162L52.5 203.1l162.7-23.6L288 32l72.8 147.5 162.7 23.6-117.7 114.8z"></path>
        </g>
    </symbol>
    <symbol id="icon-marker" viewBox="0 0 384 512">
        <g>
            <path d="M192 0C86.4 0 0 86.4 0 192c0 76.8 25.6 99.2 172.8 310.4 4.8 6.4 12 9.6 19.2 9.6s14.4-3.2
                                      19.2-9.6C358.4 291.2 384 268.8 384 192 384 86.4 297.6 0 192 0zm.01
                                      474c-19.67-28.17-37.09-52.85-52.49-74.69C42.64 261.97 32 245.11 32 192c0-88.22 71.78-160
                                      160-160s160 71.78 160 160c0 53.11-10.64 69.97-107.52 207.31-15.52 22.01-33.09
                                      46.92-52.47 74.69zm89.33-339.54a7.98 7.98 0 0 0-5.66-2.34c-2.05 0-4.1.78-5.66
                                      2.34L162.54 241.94l-48.57-48.57a7.98 7.98 0 0 0-5.66-2.34c-2.05 0-4.1.78-5.66
                                      2.34l-11.31 11.31c-3.12 3.12-3.12 8.19 0 11.31l65.54 65.54c1.56 1.56 3.61 2.34
                                      5.66 2.34s4.09-.78 5.65-2.34l124.45-124.45c3.12-3.12 3.12-8.19 0-11.31l-11.3-11.31z">
            </path>
        </g>
    </symbol>
    <symbol id="icon-cog" viewBox="0 0 512 512">
        <g>
            <path d="M482.696 299.276l-32.61-18.827a195.168 195.168 0 0 0 0-48.899l32.61-18.827c9.576-5.528 14.195-16.902 11.046-27.501-11.214-37.749-31.175-71.728-57.535-99.595-7.634-8.07-19.817-9.836-29.437-4.282l-32.562 18.798a194.125 194.125 0 0 0-42.339-24.48V38.049c0-11.13-7.652-20.804-18.484-23.367-37.644-8.909-77.118-8.91-114.77 0-10.831 2.563-18.484 12.236-18.484 23.367v37.614a194.101 194.101 0 0 0-42.339 24.48L105.23 81.345c-9.621-5.554-21.804-3.788-29.437 4.282-26.36 27.867-46.321 61.847-57.535 99.595-3.149 10.599 1.47 21.972 11.046 27.501l32.61 18.827a195.168 195.168 0 0 0 0 48.899l-32.61 18.827c-9.576 5.528-14.195 16.902-11.046 27.501 11.214 37.748 31.175 71.728 57.535 99.595 7.634 8.07 19.817 9.836 29.437 4.283l32.562-18.798a194.08 194.08 0 0 0 42.339 24.479v37.614c0 11.13 7.652 20.804 18.484 23.367 37.645 8.909 77.118 8.91 114.77 0 10.831-2.563 18.484-12.236 18.484-23.367v-37.614a194.138 194.138 0 0 0 42.339-24.479l32.562 18.798c9.62 5.554 21.803 3.788 29.437-4.283 26.36-27.867 46.321-61.847 57.535-99.595 3.149-10.599-1.47-21.972-11.046-27.501zm-65.479 100.461l-46.309-26.74c-26.988 23.071-36.559 28.876-71.039 41.059v53.479a217.145 217.145 0 0 1-87.738 0v-53.479c-33.621-11.879-43.355-17.395-71.039-41.059l-46.309 26.74c-19.71-22.09-34.689-47.989-43.929-75.958l46.329-26.74c-6.535-35.417-6.538-46.644 0-82.079l-46.329-26.74c9.24-27.969 24.22-53.869 43.929-75.969l46.309 26.76c27.377-23.434 37.063-29.065 71.039-41.069V44.464a216.79 216.79 0 0 1 87.738 0v53.479c33.978 12.005 43.665 17.637 71.039 41.069l46.309-26.76c19.709 22.099 34.689 47.999 43.929 75.969l-46.329 26.74c6.536 35.426 6.538 46.644 0 82.079l46.329 26.74c-9.24 27.968-24.219 53.868-43.929 75.957zM256 160c-52.935 0-96 43.065-96 96s43.065 96 96 96 96-43.065 96-96-43.065-96-96-96zm0 160c-35.29 0-64-28.71-64-64s28.71-64 64-64 64 28.71 64 64-28.71 64-64 64z"></path>
        </g>
    </symbol>
    <symbol id="icon-wallet" viewBox="0 0 512 512">
        <g>
            <path d="M384 256c-17.67 0-32 14.33-32 32s14.33 32 32 32 32-14.33 32-32-14.33-32-32-32zm80-160h-16V80c0-26.51-21.49-48-48-48H96C42.98 32 0 74.98 0 128v256c0 53.02 42.98 96 96 96h352c35.35 0 64-28.65 64-64V144c0-26.51-21.49-48-48-48zm16 320c0 17.64-14.36 32-32 32H96c-35.29 0-64-28.71-64-64V128c0-35.29 28.71-64 64-64h304c8.82 0 16 7.18 16 16v16H112c-8.84 0-16 7.16-16 16s7.16 16 16 16h352c8.82 0 16 7.18 16 16v272z"></path>
        </g>
    </symbol>
    <symbol id="icon-sync" viewBox="0 0 512 512">
        <g>
            <path d="M492 8h-10c-6.627 0-12 5.373-12 12v110.627C426.929 57.261 347.224 8 256 8 123.228 8 14.824 112.338 8.31 243.493 7.971 250.311 13.475 256 20.301 256h10.016c6.353 0 11.646-4.949 11.977-11.293C48.157 132.216 141.097 42 256 42c82.862 0 154.737 47.077 190.289 116H332c-6.627 0-12 5.373-12 12v10c0 6.627 5.373 12 12 12h160c6.627 0 12-5.373 12-12V20c0-6.627-5.373-12-12-12zm-.301 248h-10.015c-6.352 0-11.647 4.949-11.977 11.293C463.841 380.158 370.546 470 256 470c-82.608 0-154.672-46.952-190.299-116H180c6.627 0 12-5.373 12-12v-10c0-6.627-5.373-12-12-12H20c-6.627 0-12 5.373-12 12v160c0 6.627 5.373 12 12 12h10c6.627 0 12-5.373 12-12V381.373C85.071 454.739 164.777 504 256 504c132.773 0 241.176-104.338 247.69-235.493.339-6.818-5.165-12.507-11.991-12.507z"></path>
        </g>
    </symbol>
    <symbol id="icon-arrow-circle-down" viewBox="0 0 512 512">
        <g>
            <path d="M256 8C119 8 8 119 8 256s111 248 248 248 248-111 248-248S393 8 256 8zm216 248c0 118.7-96.1 216-216 216-118.7 0-216-96.1-216-216 0-118.7 96.1-216 216-216 118.7 0 216 96.1 216 216zm-92.5-4.5l-6.9-6.9c-4.7-4.7-12.5-4.7-17.1.2L273 330.3V140c0-6.6-5.4-12-12-12h-10c-6.6 0-12 5.4-12 12v190.3l-82.5-85.6c-4.7-4.8-12.4-4.9-17.1-.2l-6.9 6.9c-4.7 4.7-4.7 12.3 0 17l115 115.1c4.7 4.7 12.3 4.7 17 0l115-115.1c4.7-4.6 4.7-12.2 0-16.9z"></path>
        </g>
    </symbol>
















































</svg>