<svg width="431" height="431" viewBox="0 0 431 431" xmlns="http://www.w3.org/2000/svg">
    <path d="M4.39089 4.40947L0.962891 7.83747L1.23189 105.668L1.50089 203.499L3.68089 208.219C6.70389 214.761 13.8699 221.432 20.5679 223.938C26.0629 225.994 26.5579 225.999 225.392 225.999H424.709L427.315 223.584C428.748 222.256 430.178 220.119 430.493 218.834C430.808 217.55 430.938 173.074 430.783 119.999L430.501 23.4995L428.188 18.8045C425.237 12.8125 419.188 6.76347 413.196 3.81247L408.501 1.49947L208.161 1.23947L7.81989 0.980469L4.39089 4.40947ZM405.691 22.9525C410.642 26.2375 410.501 23.4755 410.501 117.4V205.499L220.001 205.747C32.8039 205.99 29.4459 205.961 26.3119 204.049C24.1699 202.742 22.7769 200.855 22.0679 198.301C20.8889 194.054 20.5099 22.8235 21.6779 21.6565C22.0499 21.2835 108.113 21.0965 212.928 21.2395C377.6 21.4645 403.799 21.6965 405.691 22.9525ZM208.348 63.0845C173.103 69.0405 154.435 106.766 171.183 138.188C175.118 145.572 185.914 155.866 193.471 159.442C199.591 162.337 210.31 164.964 216.001 164.964C221.692 164.964 232.411 162.337 238.531 159.442C246.088 155.866 256.884 145.572 260.819 138.188C278.372 105.257 256.693 65.6445 219.501 62.6905C216.201 62.4275 211.182 62.6055 208.348 63.0845ZM229.501 86.2565C252.307 97.9775 252.074 129.913 229.101 141.232C222.531 144.47 209.471 144.47 202.901 141.232C184.247 132.041 179.622 107.357 193.8 92.6645C197.383 88.9525 202.844 85.5725 208.001 83.8755C212.897 82.2645 224.16 83.5115 229.501 86.2565ZM212.389 267.941C211.228 268.431 209.315 270.056 208.139 271.551C206.009 274.259 206.001 274.483 206.001 334.634C206.001 367.835 205.676 394.999 205.279 394.999C204.882 394.999 194.419 384.906 182.029 372.57C167.124 357.73 158.535 349.901 156.645 349.435C150.13 347.825 143.481 354.549 144.716 361.499C145.416 365.443 209.027 429.534 213.251 430.553C214.764 430.917 217.239 430.917 218.751 430.553C220.571 430.114 232.538 418.836 254.147 397.194C279.291 372.013 286.947 363.769 287.461 361.322C288.837 354.768 282.272 348.163 275.621 349.41C273.215 349.862 267.248 355.239 250.001 372.499C237.635 384.874 227.176 394.999 226.759 394.999C226.342 394.999 226.001 367.781 226.001 334.515V274.031L223.251 271.012C220.299 267.773 215.802 266.501 212.389 267.941Z"
          fill="#919191"/>
</svg>
