<svg width="512" height="502" viewBox="0 0 512 502" fill="none" xmlns="http://www.w3.org/2000/svg">
<path fill-rule="evenodd" clip-rule="evenodd" d="M19.0006 1.09189C10.7916 2.70689 3.28563 9.71489 1.01663 17.8819C0.422632 20.0229 0.0136323 37.4269 0.0156323 60.4999C0.0206323 99.4199 0.0246322 99.5099 2.38363 104.5C5.16163 110.376 8.96063 114.2 14.5006 116.697C18.0876 118.314 22.4466 118.531 56.7506 118.805L95.0006 119.109V166.574V214.038L85.2466 225.769C53.2776 264.217 31.2536 300.51 24.9806 325.079C23.0166 332.772 22.9626 335.47 23.2276 413.987L23.5006 494.962L26.7696 498.231L30.0376 501.5L95.8566 501.777C147.262 501.994 162.532 501.774 165.585 500.774C169.225 499.582 171.464 496.659 198.099 458.343L226.704 417.193L231.409 398.347C233.996 387.981 236.793 377.145 237.623 374.266L239.133 369.033L325.149 368.766L411.166 368.5L414.083 365.234L417.001 361.968V240.539V119.109L455.251 118.805C491.553 118.516 493.73 118.394 498.001 116.417C503.447 113.896 508.175 108.73 510.422 102.847C511.896 98.9859 512.054 93.8299 511.794 57.9919C511.508 18.4359 511.45 17.4049 509.295 13.3759C506.799 8.70889 502.161 4.45489 497.001 2.09789C493.829 0.649886 471.499 0.485887 258.501 0.352887C125.474 0.269887 21.5476 0.590886 19.0006 1.09189ZM490.394 23.5819C491.186 25.6469 491.186 93.3529 490.394 95.4179C489.856 96.8209 485.657 96.9999 453.394 96.9999H417.001V84.1079V71.2159L428.251 70.8319C441.286 70.3879 444.3 69.0719 446.109 63.0329C447.487 58.4329 445.363 53.0669 441.304 50.8949C437.4 48.8049 74.6016 48.8049 70.6976 50.8949C66.6386 53.0669 64.5146 58.4329 65.8926 63.0329C67.7016 69.0719 70.7156 70.3879 83.7506 70.8319L95.0006 71.2159V84.6079V97.9999H59.2006C32.6896 97.9999 23.0896 97.6889 22.2006 96.7999C21.3126 95.9119 21.0006 86.4399 21.0006 60.3819C21.0006 41.0119 21.2736 24.4519 21.6076 23.5819C22.1586 22.1459 43.7406 21.9999 256.001 21.9999C468.261 21.9999 489.843 22.1459 490.394 23.5819ZM396.001 209.5V348H319.982H243.963L244.482 345.75C254.227 303.525 261.607 258.481 260.489 248.043C257.877 223.656 244.717 207 228.062 207C216.265 207 203.255 212.955 192.237 223.397C182.991 232.16 177.777 240.043 168.573 259.179C158.113 280.924 150.364 301.48 140.557 333.5L136.269 347.5L126.135 347.785L116.001 348.07V209.535V70.9999H256.001H396.001V209.5ZM229.337 228.367C234.196 230.397 238.23 239.863 238.77 250.5C239.525 265.386 227.785 326.766 212.77 386.439L207.501 407.379L182.477 443.439L157.453 479.5L100.727 479.758L44.0006 480.017V408.238C44.0006 338.868 44.0696 336.209 46.0596 328.98C50.9046 311.375 66.1866 285.126 88.1696 256.652L95.0006 247.804V304.886V361.968L97.9166 365.234L100.833 368.5L123.076 368.805C147.204 369.137 150.109 368.671 152.412 364.109C153.137 362.674 155.861 354.321 158.467 345.546C174.631 291.121 191.777 251.967 204.767 239.816C211.783 233.253 220.698 227.835 225.783 227.044C225.938 227.02 227.537 227.615 229.337 228.367Z" fill="black"/>
</svg>
